<svg class="icon-svg" xmlns="http://www.w3.org/2000/svg" width="14" height="14" viewBox="0 0 14 14" fill="none">
  <mask id="mask0_1182_23364" style="mask-type:alpha" maskUnits="userSpaceOnUse" x="0" y="0" width="14" height="14">
    <rect width="14" height="14" fill="currentColor"/>
  </mask>
  <g mask="url(#mask0_1182_23364)">
    <path d="M4.7249 8.40039H9.2749V7.80247C9.2749 7.4622 9.05615 7.17296 8.61865 6.93477C8.18115 6.69657 7.64157 6.57747 6.9999 6.57747C6.35824 6.57747 5.81865 6.69657 5.38115 6.93477C4.94365 7.17296 4.7249 7.4622 4.7249 7.80247V8.40039ZM7.00296 5.95039C7.29259 5.95039 7.53949 5.84729 7.74365 5.64108C7.94782 5.43487 8.0499 5.18695 8.0499 4.89733C8.0499 4.6077 7.9468 4.36081 7.74059 4.15664C7.53438 3.95247 7.28647 3.85039 6.99684 3.85039C6.70722 3.85039 6.46032 3.9535 6.25615 4.1597C6.05199 4.36591 5.9499 4.61383 5.9499 4.90345C5.9499 5.19308 6.05301 5.43997 6.25921 5.64414C6.46542 5.84831 6.71334 5.95039 7.00296 5.95039ZM1.3999 12.6004V2.45039C1.3999 2.16164 1.50271 1.91445 1.70834 1.70883C1.91396 1.5032 2.16115 1.40039 2.4499 1.40039H11.5499C11.8387 1.40039 12.0858 1.5032 12.2915 1.70883C12.4971 1.91445 12.5999 2.16164 12.5999 2.45039V9.45039C12.5999 9.73914 12.4971 9.98633 12.2915 10.192C12.0858 10.3976 11.8387 10.5004 11.5499 10.5004H3.4999L1.3999 12.6004Z" fill="#0B0A0A"/>
  </g>
</svg>