<svg xmlns="http://www.w3.org/2000/svg" width="34" height="34" viewBox="0 0 34 34" fill="none">
  <mask id="mask0_1541_9488" style="mask-type:alpha" maskUnits="userSpaceOnUse" x="0" y="0" width="34" height="34">
    <rect width="34" height="34" fill="#D9D9D9"/>
  </mask>
  <g mask="url(#mask0_1541_9488)">
    <path d="M16.9997 8.50065C16.2205 8.50065 15.5535 8.22322 14.9986 7.66836C14.4438 7.1135 14.1663 6.44648 14.1663 5.66732C14.1663 4.88815 14.4438 4.22114 14.9986 3.66628C15.5535 3.11141 16.2205 2.83398 16.9997 2.83398C17.7788 2.83398 18.4459 3.11141 19.0007 3.66628C19.5556 4.22114 19.833 4.88815 19.833 5.66732C19.833 6.44648 19.5556 7.1135 19.0007 7.66836C18.4459 8.22322 17.7788 8.50065 16.9997 8.50065ZM24.083 31.1673V24.084H16.9997C16.2205 24.084 15.5535 23.8066 14.9986 23.2517C14.4438 22.6968 14.1663 22.0298 14.1663 21.2507V12.7507C14.1663 11.9715 14.4438 11.3045 14.9986 10.7496C15.5535 10.1947 16.2205 9.91732 16.9997 9.91732C17.5663 9.91732 18.0563 10.0413 18.4695 10.2892C18.8827 10.5371 19.3254 10.9326 19.7976 11.4757C21.0962 13.034 22.2709 14.1024 23.3216 14.6809C24.3722 15.2593 25.5705 15.5604 26.9163 15.584V18.4173C25.665 18.4173 24.4018 18.1458 23.1268 17.6027C21.8518 17.0597 20.7538 16.4104 19.833 15.6548V20.5423H24.083C24.8622 20.5423 25.5292 20.8197 26.0841 21.3746C26.6389 21.9295 26.9163 22.5965 26.9163 23.3757V31.1673H24.083ZM14.1663 31.1673C12.2066 31.1673 10.5361 30.4767 9.15488 29.0954C7.77363 27.7142 7.08301 26.0437 7.08301 24.084C7.08301 22.384 7.62016 20.8847 8.69447 19.5861C9.76877 18.2875 11.1205 17.4729 12.7497 17.1423V20.0465C11.9233 20.377 11.2445 20.9024 10.7132 21.6225C10.182 22.3427 9.91634 23.1632 9.91634 24.084C9.91634 25.2645 10.3295 26.268 11.1559 27.0944C11.9823 27.9208 12.9858 28.334 14.1663 28.334C15.0872 28.334 15.9077 28.0684 16.6278 27.5371C17.3479 27.0059 17.8733 26.327 18.2038 25.5007H21.108C20.7775 27.1298 19.9629 28.4816 18.6643 29.5559C17.3656 30.6302 15.8663 31.1673 14.1663 31.1673Z" fill="#1C1B1F"/>
  </g>
</svg>