<svg class="icon-svg" xmlns="http://www.w3.org/2000/svg" width="16" height="16" viewBox="0 0 16 16" fill="none">
                    <mask id="mask0_1432_8544" style="mask-type:alpha" maskUnits="userSpaceOnUse" x="0" y="0" width="16" height="16">
                        <rect width="16" height="16" fill="#D9D9D9"/>
                    </mask>
                    <g mask="url(#mask0_1432_8544)">
                        <path d="M0.37793 12.9565V2.58984H1.77791V9.41206H7.47793V4.00096H12.9001C13.6571 4.00096 14.3 4.26543 14.829 4.79436C15.3579 5.32329 15.6224 5.96623 15.6224 6.72316V12.9565H14.2224V10.812H1.77791V12.9565H0.37793ZM4.55471 8.65649C3.98609 8.65649 3.50614 8.46042 3.11485 8.06826C2.72357 7.67611 2.52793 7.19463 2.52793 6.62383C2.52793 6.05302 2.72325 5.57132 3.11388 5.17873C3.5045 4.78614 3.98413 4.58984 4.55276 4.58984C5.12139 4.58984 5.60384 4.78535 6.00013 5.17636C6.39643 5.56737 6.59458 6.04746 6.59458 6.61663C6.59458 7.18888 6.39676 7.67193 6.00111 8.06576C5.60548 8.45958 5.12335 8.65649 4.55471 8.65649Z" fill="#1C1B1F"/>
                    </g>
                    </svg>