<svg width="40" height="40" viewBox="0 0 40 40" fill="none" xmlns="http://www.w3.org/2000/svg">
<mask id="mask0_1541_9452" style="mask-type:alpha" maskUnits="userSpaceOnUse" x="0" y="0" width="40" height="40">
<rect width="40" height="40" fill="#D9D9D9"/>
</mask>
<g mask="url(#mask0_1541_9452)">
<path d="M10.0003 31.6654C8.61144 31.6654 7.43088 31.1793 6.45866 30.207C5.48644 29.2348 5.00033 28.0543 5.00033 26.6654H1.66699V11.6654C1.66699 10.7487 1.99338 9.96398 2.64616 9.3112C3.29894 8.65842 4.08366 8.33203 5.00033 8.33203H28.3337L38.3337 18.332V26.6654H35.0003C35.0003 28.0543 34.5142 29.2348 33.542 30.207C32.5698 31.1793 31.3892 31.6654 30.0003 31.6654C28.6114 31.6654 27.4309 31.1793 26.4587 30.207C25.4864 29.2348 25.0003 28.0543 25.0003 26.6654H15.0003C15.0003 28.0543 14.5142 29.2348 13.542 30.207C12.5698 31.1793 11.3892 31.6654 10.0003 31.6654ZM25.0003 16.6654H31.667L26.667 11.6654H25.0003V16.6654ZM15.0003 16.6654H21.667V11.6654H15.0003V16.6654ZM5.00033 16.6654H11.667V11.6654H5.00033V16.6654ZM10.0003 28.7487C10.5837 28.7487 11.0767 28.5473 11.4795 28.1445C11.8823 27.7418 12.0837 27.2487 12.0837 26.6654C12.0837 26.082 11.8823 25.589 11.4795 25.1862C11.0767 24.7834 10.5837 24.582 10.0003 24.582C9.41699 24.582 8.92394 24.7834 8.52116 25.1862C8.11838 25.589 7.91699 26.082 7.91699 26.6654C7.91699 27.2487 8.11838 27.7418 8.52116 28.1445C8.92394 28.5473 9.41699 28.7487 10.0003 28.7487ZM30.0003 28.7487C30.5837 28.7487 31.0767 28.5473 31.4795 28.1445C31.8823 27.7418 32.0837 27.2487 32.0837 26.6654C32.0837 26.082 31.8823 25.589 31.4795 25.1862C31.0767 24.7834 30.5837 24.582 30.0003 24.582C29.417 24.582 28.9239 24.7834 28.5212 25.1862C28.1184 25.589 27.917 26.082 27.917 26.6654C27.917 27.2487 28.1184 27.7418 28.5212 28.1445C28.9239 28.5473 29.417 28.7487 30.0003 28.7487ZM5.00033 23.332H6.33366C6.80588 22.832 7.34755 22.4293 7.95866 22.1237C8.56977 21.8181 9.25032 21.6654 10.0003 21.6654C10.7503 21.6654 11.4309 21.8181 12.042 22.1237C12.6531 22.4293 13.1948 22.832 13.667 23.332H26.3337C26.8059 22.832 27.3475 22.4293 27.9587 22.1237C28.5698 21.8181 29.2503 21.6654 30.0003 21.6654C30.7503 21.6654 31.4309 21.8181 32.042 22.1237C32.6531 22.4293 33.1948 22.832 33.667 23.332H35.0003V19.9987H5.00033V23.332Z" fill="#1C1B1F"/>
</g>
</svg>
