<svg width="55" height="55" viewBox="0 0 55 55" fill="none" xmlns="http://www.w3.org/2000/svg">
<mask id="mask0_1605_68478" style="mask-type:alpha" maskUnits="userSpaceOnUse" x="0" y="0" width="55" height="55">
<rect x="0.25" y="0.5" width="54" height="54" fill="#D9D9D9"/>
</mask>
<g mask="url(#mask0_1605_68478)">
<path d="M27.2499 30.875L40.7499 21.875L27.2499 12.875V30.875ZM28.8249 43.25H41.4249C41.1624 44.225 40.7124 45.0125 40.0749 45.6125C39.4374 46.2125 38.6124 46.5875 37.5999 46.7375L13.0749 49.7188C11.8374 49.9063 10.7218 49.6156 9.72803 48.8469C8.73428 48.0781 8.1624 47.075 8.0124 45.8375L5.03115 21.2563C4.88115 20.0188 5.18115 18.9125 5.93115 17.9375C6.68115 16.9625 7.6749 16.4 8.9124 16.25L11.4999 15.9125V20.4125L9.4749 20.6938L12.5124 45.275L28.8249 43.25ZM20.4999 38.75C19.2624 38.75 18.203 38.3094 17.3218 37.4281C16.4405 36.5469 15.9999 35.4875 15.9999 34.25V9.5C15.9999 8.2625 16.4405 7.20313 17.3218 6.32188C18.203 5.44062 19.2624 5 20.4999 5H45.2499C46.4874 5 47.5468 5.44062 48.428 6.32188C49.3093 7.20313 49.7499 8.2625 49.7499 9.5V34.25C49.7499 35.4875 49.3093 36.5469 48.428 37.4281C47.5468 38.3094 46.4874 38.75 45.2499 38.75H20.4999ZM20.4999 34.25H45.2499V9.5H20.4999V34.25Z" fill="#FB8500"/>
</g>
</svg>
