<svg width="24" height="28" viewBox="0 0 24 28" fill="none" xmlns="http://www.w3.org/2000/svg">
<path d="M17.5039 6.77173C18.3921 6.83799 20.9573 7.10373 22.6016 9.55396C22.47 9.6533 19.559 11.3419 19.5918 14.885C19.6247 19.1236 23.2757 20.5316 23.3086 20.5647C23.2746 20.668 22.7308 22.5702 21.4004 24.5217C20.233 26.2435 19.0323 27.932 17.125 27.9651C15.2836 27.998 14.6748 26.8557 12.5537 26.8557C10.4492 26.8558 9.75848 27.932 8.01562 27.9983C6.17393 28.0645 4.77591 26.1772 3.6084 24.4553C1.2241 20.9784 -0.600992 14.6538 1.86523 10.3821C3.06565 8.24621 5.253 6.90445 7.60449 6.87134C9.41327 6.83829 11.0741 8.08032 12.1758 8.08032C13.2611 8.08032 15.2182 6.63927 17.5039 6.77173ZM17.5176 0.000244141C17.682 1.65595 17.0405 3.27888 16.0703 4.48755C15.0837 5.66294 13.5052 6.58954 11.9268 6.45728C11.7295 4.86785 12.5019 3.17904 13.4062 2.13599C14.3929 0.927346 16.1199 0.0664717 17.5176 0.000244141Z" fill="white"/>
</svg>
