<svg class="icon-svg" xmlns="http://www.w3.org/2000/svg" width="16" height="16" viewBox="0 0 16 16" fill="none">
                    <mask id="mask0_1432_8553" style="mask-type:alpha" maskUnits="userSpaceOnUse" x="0" y="0" width="16" height="16">
                        <rect width="16" height="16" fill="#D9D9D9"/>
                    </mask>
                    <g mask="url(#mask0_1432_8553)">
                        <path d="M7.13317 11.5342H8.89984V7.46758H7.13317V11.5342ZM7.99984 6.03425C8.2265 6.03425 8.4165 5.95758 8.56984 5.80424C8.72317 5.65091 8.79984 5.46091 8.79984 5.23425C8.79984 5.00758 8.72317 4.81758 8.56984 4.66424C8.4165 4.51091 8.2265 4.43424 7.99984 4.43424C7.77317 4.43424 7.58317 4.51091 7.42984 4.66424C7.2765 4.81758 7.19984 5.00758 7.19984 5.23425C7.19984 5.46091 7.2765 5.65091 7.42984 5.80424C7.58317 5.95758 7.77317 6.03425 7.99984 6.03425ZM8.0002 15.2342C6.31107 14.8454 4.9165 13.9006 3.8165 12.4C2.7165 10.8994 2.1665 9.233 2.1665 7.40091V2.96758L7.99984 0.767578L13.8332 2.96758V7.39368C13.8332 9.23183 13.2833 10.9009 12.1835 12.4009C11.0838 13.9009 9.68934 14.8454 8.0002 15.2342Z" fill="#1C1B1F"/>
                    </g>
                    </svg>