<svg class="w-10 h-10 rounded-[6.25rem] border border-[#149CBC] flex p-2 justify-center items-center gap-2 flex-shrink-0" aria-hidden="true" focusable="false" xmlns="http://www.w3.org/2000/svg" width="28" height="30" viewBox="0 0 28 30" fill="none">
  <mask id="mask0_1182_23909" style="mask-type:alpha" maskUnits="userSpaceOnUse" x="0" y="0" width="28" height="30">
    <rect width="28" height="30" fill="#D9D9D9"/>
  </mask>
  <g mask="url(#mask0_1182_23909)">
    <path d="M7.28571 7.8C6.61224 7.8 6.03571 7.565 5.55612 7.095C5.07653 6.625 4.83673 6.06 4.83673 5.4C4.83673 4.74 5.07653 4.175 5.55612 3.705C6.03571 3.235 6.61224 3 7.28571 3C7.95918 3 8.53571 3.235 9.01531 3.705C9.4949 4.175 9.73469 4.74 9.73469 5.4C9.73469 6.06 9.4949 6.625 9.01531 7.095C8.53571 7.565 7.95918 7.8 7.28571 7.8ZM5.44898 27V18.6H3V11.4C3 10.74 3.2398 10.175 3.71939 9.705C4.19898 9.235 4.77551 9 5.44898 9H9.12245C9.79592 9 10.3724 9.235 10.852 9.705C11.3316 10.175 11.5714 10.74 11.5714 11.4V13.74C10.2857 14.46 9.25 15.46 8.46429 16.74C7.67857 18.02 7.28571 19.44 7.28571 21C7.28571 22.14 7.5 23.215 7.92857 24.225C8.35714 25.235 8.95918 26.12 9.73469 26.88V27H5.44898ZM15.8571 27C14.1633 27 12.7194 26.415 11.5255 25.245C10.3316 24.075 9.73469 22.66 9.73469 21C9.73469 19.66 10.1378 18.475 10.9439 17.445C11.75 16.415 12.7755 15.7 14.0204 15.3V17.91C13.4694 18.23 13.0255 18.66 12.6888 19.2C12.352 19.74 12.1837 20.34 12.1837 21C12.1837 22 12.5408 22.85 13.2551 23.55C13.9694 24.25 14.8367 24.6 15.8571 24.6C16.8776 24.6 17.7449 24.25 18.4592 23.55C19.1735 22.85 19.5306 22 19.5306 21H21.9796C21.9796 22.66 21.3827 24.075 20.1888 25.245C18.9949 26.415 17.551 27 15.8571 27ZM24.949 24.24L21.9184 19.8H15.2449V10.2H17.6939V17.4H23.2653L27 22.92L24.949 24.24Z" fill="#149CBC"/>
  </g>
</svg>