<svg width="20" height="21" viewBox="0 0 20 21" fill="none" xmlns="http://www.w3.org/2000/svg">
<mask id="mask0_2170_2590" style="mask-type:alpha" maskUnits="userSpaceOnUse" x="0" y="0" width="20" height="21">
<rect y="0.0488281" width="20" height="20" fill="#D9D9D9"/>
</mask>
<g mask="url(#mask0_2170_2590)">
<path d="M8.33329 12.9655H9.99996V10.8822H12.0833V9.21549H9.99996V7.13216H8.33329V9.21549H6.24996V10.8822H8.33329V12.9655ZM3.33329 14.0072H15V6.09049H3.33329V14.0072ZM3.33329 15.6738C2.87496 15.6738 2.4826 15.5106 2.15621 15.1842C1.82982 14.8579 1.66663 14.4655 1.66663 14.0072V6.09049C1.66663 5.63216 1.82982 5.2398 2.15621 4.91341C2.4826 4.58702 2.87496 4.42383 3.33329 4.42383H15C15.4583 4.42383 15.8507 4.58702 16.177 4.91341C16.5034 5.2398 16.6666 5.63216 16.6666 6.09049V7.96549H17.0833C17.4305 7.96549 17.7257 8.08702 17.9687 8.33008C18.2118 8.57313 18.3333 8.86827 18.3333 9.21549V10.8822C18.3333 11.2433 18.2118 11.5419 17.9687 11.778C17.7257 12.0141 17.4305 12.1322 17.0833 12.1322H16.6666V14.0072C16.6666 14.4655 16.5034 14.8579 16.177 15.1842C15.8507 15.5106 15.4583 15.6738 15 15.6738H3.33329Z" fill="#242424"/>
</g>
</svg>
