<svg width="55" height="55" viewBox="0 0 55 55" fill="none" xmlns="http://www.w3.org/2000/svg">
<mask id="mask0_1605_68472" style="mask-type:alpha" maskUnits="userSpaceOnUse" x="0" y="0" width="55" height="55">
<rect x="0.75" y="0.5" width="54" height="54" fill="#D9D9D9"/>
</mask>
<g mask="url(#mask0_1605_68472)">
<path d="M3 43.25V11.75H7.5V43.25H3ZM12 43.25V11.75H16.5V43.25H12ZM25.5 43.25C24.2625 43.25 23.2031 42.8094 22.3219 41.9281C21.4406 41.0469 21 39.9875 21 38.75V16.25C21 15.0125 21.4406 13.9531 22.3219 13.0719C23.2031 12.1906 24.2625 11.75 25.5 11.75H48C49.2375 11.75 50.2969 12.1906 51.1781 13.0719C52.0594 13.9531 52.5 15.0125 52.5 16.25V38.75C52.5 39.9875 52.0594 41.0469 51.1781 41.9281C50.2969 42.8094 49.2375 43.25 48 43.25H25.5ZM25.5 38.75H48V16.25H25.5V38.75ZM27.75 34.25H45.75L39.9 26.375L35.625 32L32.475 27.8375L27.75 34.25Z" fill="#FB8500"/>
</g>
</svg>
