<svg class="icon-svg" xmlns="http://www.w3.org/2000/svg" width="16" height="16" viewBox="0 0 16 16" fill="none">
  <mask id="mask0_1433_9414" style="mask-type:alpha" maskUnits="userSpaceOnUse" x="0" y="0" width="16" height="16">
    <rect width="16" height="16" fill="#D9D9D9"/>
  </mask>
  <g mask="url(#mask0_1433_9414)">
    <path d="M5.89961 11.1111C5.41104 11.1111 4.99823 10.9424 4.6612 10.6051C4.32415 10.2677 4.15563 9.85477 4.15563 9.3662C4.15563 8.87762 4.32431 8.46482 4.66166 8.12778C4.99901 7.79074 5.41197 7.62222 5.90055 7.62222C6.38913 7.62222 6.80193 7.79089 7.13897 8.12825C7.476 8.46559 7.64451 8.87856 7.64451 9.36713C7.64451 9.85571 7.47584 10.2685 7.1385 10.6056C6.80114 10.9426 6.38818 11.1111 5.89961 11.1111ZM3.04451 15C2.6698 15 2.34279 14.8603 2.06348 14.581C1.78418 14.3017 1.64453 13.9747 1.64453 13.6V3.46665C1.64453 3.09194 1.78418 2.76493 2.06348 2.48562C2.34279 2.20632 2.6698 2.06667 3.04451 2.06667H3.63341V1H5.08896V2.06667H10.9112V1H12.3667V2.06667H12.9556C13.3304 2.06667 13.6574 2.20632 13.9367 2.48562C14.216 2.76493 14.3556 3.09194 14.3556 3.46665V13.6C14.3556 13.9747 14.216 14.3017 13.9367 14.581C13.6574 14.8603 13.3304 15 12.9556 15H3.04451ZM3.04451 13.6H12.9556V6.33333H3.04451V13.6Z" fill="#1F2937"/>
  </g>
</svg>