<svg class="icon-svg" width="14" height="14" viewBox="0 0 10 10" fill="none" xmlns="http://www.w3.org/2000/svg">
<mask id="mask0_1665_6696" style="mask-type:alpha" maskUnits="userSpaceOnUse" x="0" y="0" width="10" height="10">
<rect width="10" height="10" fill="currentColor"/>
</mask>
<g mask="url(#mask0_1665_6696)">
<path d="M5.00219 6C4.89656 6 4.80729 5.96427 4.73438 5.89281C4.66146 5.82135 4.625 5.73281 4.625 5.62719C4.625 5.52156 4.66073 5.43229 4.73219 5.35938C4.80365 5.28646 4.89219 5.25 4.99781 5.25C5.10344 5.25 5.19271 5.28573 5.26562 5.35719C5.33854 5.42865 5.375 5.51719 5.375 5.62281C5.375 5.72844 5.33927 5.81771 5.26781 5.89062C5.19635 5.96354 5.10781 6 5.00219 6ZM3.37719 6C3.27156 6 3.18229 5.96427 3.10938 5.89281C3.03646 5.82135 3 5.73281 3 5.62719C3 5.52156 3.03573 5.43229 3.10719 5.35938C3.17865 5.28646 3.26719 5.25 3.37281 5.25C3.47844 5.25 3.56771 5.28573 3.64062 5.35719C3.71354 5.42865 3.75 5.51719 3.75 5.62281C3.75 5.72844 3.71427 5.81771 3.64281 5.89062C3.57135 5.96354 3.48281 6 3.37719 6ZM6.62719 6C6.52156 6 6.43229 5.96427 6.35938 5.89281C6.28646 5.82135 6.25 5.73281 6.25 5.62719C6.25 5.52156 6.28573 5.43229 6.35719 5.35938C6.42865 5.28646 6.51719 5.25 6.62281 5.25C6.72844 5.25 6.81771 5.28573 6.89062 5.35719C6.96354 5.42865 7 5.51719 7 5.62281C7 5.72844 6.96427 5.81771 6.89281 5.89062C6.82135 5.96354 6.73281 6 6.62719 6ZM5.00219 7.5C4.89656 7.5 4.80729 7.46427 4.73438 7.39281C4.66146 7.32135 4.625 7.23281 4.625 7.12719C4.625 7.02156 4.66073 6.93229 4.73219 6.85938C4.80365 6.78646 4.89219 6.75 4.99781 6.75C5.10344 6.75 5.19271 6.78573 5.26562 6.85719C5.33854 6.92865 5.375 7.01719 5.375 7.12281C5.375 7.22844 5.33927 7.31771 5.26781 7.39062C5.19635 7.46354 5.10781 7.5 5.00219 7.5ZM3.37719 7.5C3.27156 7.5 3.18229 7.46427 3.10938 7.39281C3.03646 7.32135 3 7.23281 3 7.12719C3 7.02156 3.03573 6.93229 3.10719 6.85938C3.17865 6.78646 3.26719 6.75 3.37281 6.75C3.47844 6.75 3.56771 6.78573 3.64062 6.85719C3.71354 6.92865 3.75 7.01719 3.75 7.12281C3.75 7.22844 3.71427 7.31771 3.64281 7.39062C3.57135 7.46354 3.48281 7.5 3.37719 7.5ZM6.62719 7.5C6.52156 7.5 6.43229 7.46427 6.35938 7.39281C6.28646 7.32135 6.25 7.23281 6.25 7.12719C6.25 7.02156 6.28573 6.93229 6.35719 6.85938C6.42865 6.78646 6.51719 6.75 6.62281 6.75C6.72844 6.75 6.81771 6.78573 6.89062 6.85719C6.96354 6.92865 7 7.01719 7 7.12281C7 7.22844 6.96427 7.31771 6.89281 7.39062C6.82135 7.46354 6.73281 7.5 6.62719 7.5ZM2.25 9C2.04375 9 1.86719 8.92535 1.72031 8.77604C1.57344 8.62674 1.5 8.45139 1.5 8.25V2.75C1.5 2.54861 1.57344 2.37326 1.72031 2.22396C1.86719 2.07465 2.04375 2 2.25 2H3V1H3.75V2H6.25V1H7V2H7.75C7.95625 2 8.13281 2.07465 8.27969 2.22396C8.42656 2.37326 8.5 2.54861 8.5 2.75V8.25C8.5 8.45139 8.42656 8.62674 8.27969 8.77604C8.13281 8.92535 7.95625 9 7.75 9H2.25ZM2.25 8.25H7.75V4.5H2.25V8.25Z" fill="#0B0A0A"/>
</g>
</svg>
