<svg width="16" height="16" viewBox="0 0 16 16" fill="none" xmlns="http://www.w3.org/2000/svg">
<g clip-path="url(#clip0_1941_115)">
<path d="M7.99997 16.0001C12.4182 16.0001 15.9999 12.4184 15.9999 8.00015C15.9999 3.58189 12.4182 0.000183105 7.99997 0.000183105C3.58171 0.000183105 0 3.58189 0 8.00015C0 12.4184 3.58171 16.0001 7.99997 16.0001Z" fill="#F0F0F0"/>
<path d="M7.99959 0.000244141C5.38234 0.000244141 3.05877 1.25721 1.59924 3.20024H14.3999C12.9404 1.25718 10.6168 0.000244141 7.99959 0.000244141Z" fill="#0052B4"/>
<path d="M7.99959 16.0004C10.6168 16.0004 12.9404 14.7434 14.3999 12.8004H1.59924C3.05874 14.7434 5.38234 16.0004 7.99959 16.0004Z" fill="#0052B4"/>
<path d="M0 7.99997C0 8.54794 0.05525 9.083 0.160219 9.59997H15.8398C15.9448 9.083 16 8.54794 16 7.99997C16 7.452 15.9447 6.91693 15.8398 6.39996H0.160219C0.05525 6.91693 0 7.452 0 7.99997Z" fill="#0052B4"/>
<path d="M2.34312 2.34308C-0.781039 5.46724 -0.781039 10.5326 2.34312 13.6568C3.63415 12.3658 4.87577 11.1241 7.99996 7.99995L2.34312 2.34308Z" fill="#D80027"/>
<path d="M3.23768 5.91278L3.75562 7.507H5.43205L4.0759 8.49237L4.59383 10.0866L3.23768 9.10131L1.88146 10.0866L2.39952 8.49237L1.04333 7.507H2.71965L3.23768 5.91278Z" fill="#F0F0F0"/>
</g>
<defs>
<clipPath id="clip0_1941_115">
<rect width="16" height="16" fill="white"/>
</clipPath>
</defs>
</svg>
