<svg width="26" height="25" viewBox="0 0 26 25" fill="none" xmlns="http://www.w3.org/2000/svg">
<mask id="mask0_1593_9729" style="mask-type:alpha" maskUnits="userSpaceOnUse" x="0" y="0" width="26" height="25">
<rect x="0.803589" width="25" height="25" fill="#D9D9D9"/>
</mask>
<g mask="url(#mask0_1593_9729)">
<path d="M6.01192 21.875C5.43901 21.875 4.94855 21.671 4.54057 21.263C4.13258 20.855 3.92859 20.3646 3.92859 19.7917V5.20833C3.92859 4.63542 4.13258 4.14497 4.54057 3.73698C4.94855 3.32899 5.43901 3.125 6.01192 3.125H20.5953C21.1682 3.125 21.6586 3.32899 22.0666 3.73698C22.4746 4.14497 22.6786 4.63542 22.6786 5.20833V19.7917C22.6786 20.3646 22.4746 20.855 22.0666 21.263C21.6586 21.671 21.1682 21.875 20.5953 21.875H6.01192ZM6.01192 5.20833V19.7917H20.5953V5.20833H18.5119V12.5L15.9078 10.9375L13.3036 12.5V5.20833H6.01192Z" fill="currentColor"/>
</g>
</svg>
