<svg class="w-10 h-10 rounded-[6.25rem] border border-[#149CBC] flex p-2 justify-center items-center gap-2 flex-shrink-0" aria-hidden="true" focusable="false" xmlns="http://www.w3.org/2000/svg" width="16" height="22" viewBox="0 0 16 22" fill="none">
  <path d="M8 22C6.41905 22 5.07143 21.4638 3.95714 20.3913C2.84286 19.3188 2.28571 18.0217 2.28571 16.5V6.6C1.65714 6.6 1.11905 6.38458 0.671429 5.95375C0.22381 5.52292 0 5.005 0 4.4V2.2C0 1.595 0.22381 1.07708 0.671429 0.64625C1.11905 0.215417 1.65714 0 2.28571 0H13.7143C14.3429 0 14.881 0.215417 15.3286 0.64625C15.7762 1.07708 16 1.595 16 2.2V4.4C16 5.005 15.7762 5.52292 15.3286 5.95375C14.881 6.38458 14.3429 6.6 13.7143 6.6V16.5C13.7143 18.0217 13.1571 19.3188 12.0429 20.3913C10.9286 21.4638 9.58095 22 8 22ZM2.28571 4.4H13.7143V2.2H2.28571V4.4ZM8 19.8C8.95238 19.8 9.7619 19.4792 10.4286 18.8375C11.0952 18.1958 11.4286 17.4167 11.4286 16.5H8V14.3H11.4286V12.1H8V9.9H11.4286V6.6H4.57143V16.5C4.57143 17.4167 4.90476 18.1958 5.57143 18.8375C6.2381 19.4792 7.04762 19.8 8 19.8Z" fill="#149CBC"/>
</svg>