<svg width="40" height="40" viewBox="0 0 40 40" fill="none" xmlns="http://www.w3.org/2000/svg">
<mask id="mask0_1541_9459" style="mask-type:alpha" maskUnits="userSpaceOnUse" x="0" y="0" width="40" height="40">
<rect width="40" height="40" fill="#D9D9D9"/>
</mask>
<g mask="url(#mask0_1541_9459)">
<path d="M10 31.6673V33.334C10 33.8062 9.84028 34.202 9.52083 34.5215C9.20139 34.8409 8.80556 35.0007 8.33333 35.0007H6.66667C6.19444 35.0007 5.79861 34.8409 5.47917 34.5215C5.15972 34.202 5 33.8062 5 33.334V20.0007L8.5 10.0007C8.66667 9.50065 8.96528 9.09787 9.39583 8.79232C9.82639 8.48676 10.3056 8.33398 10.8333 8.33398H29.1667C29.6944 8.33398 30.1736 8.48676 30.6042 8.79232C31.0347 9.09787 31.3333 9.50065 31.5 10.0007L35 20.0007V33.334C35 33.8062 34.8403 34.202 34.5208 34.5215C34.2014 34.8409 33.8056 35.0007 33.3333 35.0007H31.6667C31.1944 35.0007 30.7986 34.8409 30.4792 34.5215C30.1597 34.202 30 33.8062 30 33.334V31.6673H10ZM9.66667 16.6673H30.3333L28.5833 11.6673H11.4167L9.66667 16.6673ZM12.5 26.6673C13.1944 26.6673 13.7847 26.4243 14.2708 25.9382C14.7569 25.452 15 24.8618 15 24.1673C15 23.4729 14.7569 22.8826 14.2708 22.3965C13.7847 21.9104 13.1944 21.6673 12.5 21.6673C11.8056 21.6673 11.2153 21.9104 10.7292 22.3965C10.2431 22.8826 10 23.4729 10 24.1673C10 24.8618 10.2431 25.452 10.7292 25.9382C11.2153 26.4243 11.8056 26.6673 12.5 26.6673ZM27.5 26.6673C28.1944 26.6673 28.7847 26.4243 29.2708 25.9382C29.7569 25.452 30 24.8618 30 24.1673C30 23.4729 29.7569 22.8826 29.2708 22.3965C28.7847 21.9104 28.1944 21.6673 27.5 21.6673C26.8056 21.6673 26.2153 21.9104 25.7292 22.3965C25.2431 22.8826 25 23.4729 25 24.1673C25 24.8618 25.2431 25.452 25.7292 25.9382C26.2153 26.4243 26.8056 26.6673 27.5 26.6673ZM8.33333 28.334H31.6667V20.0007H8.33333V28.334Z" fill="#1C1B1F"/>
</g>
</svg>
