<svg width="26" height="26" viewBox="0 0 26 26" fill="none" xmlns="http://www.w3.org/2000/svg">
<mask id="mask0_1662_1734" style="mask-type:alpha" maskUnits="userSpaceOnUse" x="0" y="0" width="26" height="26">
<rect x="0.873047" y="0.5" width="25" height="25" fill="#D9D9D9"/>
</mask>
<g mask="url(#mask0_1662_1734)">
<path d="M13.373 17.1666L8.16467 11.9583L9.62301 10.4479L12.3313 13.1562V4.66663H14.4147V13.1562L17.123 10.4479L18.5813 11.9583L13.373 17.1666ZM7.12301 21.3333C6.55009 21.3333 6.05964 21.1293 5.65165 20.7213C5.24367 20.3133 5.03967 19.8229 5.03967 19.25V16.125H7.12301V19.25H19.623V16.125H21.7063V19.25C21.7063 19.8229 21.5023 20.3133 21.0944 20.7213C20.6864 21.1293 20.1959 21.3333 19.623 21.3333H7.12301Z" fill="white"/>
</g>
</svg>
