<svg width="20" height="20" viewBox="0 0 20 20" fill="none" xmlns="http://www.w3.org/2000/svg"><rect x="0.25" y="0.25" width="19.5" height="19.5" rx="9.75" stroke="#FAFAFA" stroke-width="0.5"></rect><g clip-path="url(#clip0_686_3898)"><path d="M11.5 13.25C10.245 13.25 9.16 12.54 8.62 11.5H11.5V10.5H8.29C8.265 10.335 8.25 10.17 8.25 10C8.25 9.83 8.265 9.665 8.29 9.5H11.5V8.5H8.62C9.16 7.46 10.25 6.75 11.5 6.75C12.305 6.75 13.045 7.045 13.615 7.535L14.5 6.65C13.705 5.935 12.65 5.5 11.5 5.5C9.54 5.5 7.88 6.755 7.26 8.5H5.5V9.5H7.03C7.01 9.665 7 9.83 7 10C7 10.17 7.01 10.335 7.03 10.5H5.5V11.5H7.26C7.88 13.245 9.54 14.5 11.5 14.5C12.655 14.5 13.705 14.065 14.5 13.35L13.61 12.465C13.045 12.955 12.31 13.25 11.5 13.25Z" fill="#FAFAFA"></path></g><defs><clipPath id="clip0_686_3898"><rect x="4" y="4" width="12" height="12" rx="6" fill="white"></rect></clipPath></defs></svg>