<svg xmlns="http://www.w3.org/2000/svg" width="36" height="38" viewBox="0 0 36 38" fill="none">
  <path d="M31.0966 32.8155C30.9748 32.2133 30.3961 31.8167 29.7717 31.9195L27.3504 31.9636L26.7261 25.0745C26.6804 24.5017 26.1626 24.061 25.5535 24.0757L18.9748 24.2519C17.9088 24.2813 17.0408 23.4881 17.0103 22.4746V21.8724L22.2641 21.7255C22.8885 21.7108 23.391 21.1967 23.3606 20.5944C23.3606 19.9775 22.8276 19.5075 22.188 19.5221L16.9037 19.6837L16.8428 17.3776C18.5179 17.2454 20.0408 16.1731 20.5433 14.5279C21.2134 12.3834 19.9494 10.136 17.7413 9.48967C15.5332 8.84336 13.188 10.0625 12.5179 12.1924C11.9392 14.0432 12.8225 16.0115 14.5281 16.9075L14.6956 22.548C14.7717 24.7807 16.6905 26.5287 19.0052 26.47L24.5332 26.3084L25.1423 33.1534C25.1728 33.4471 25.3403 33.7262 25.5839 33.9319C25.7057 34.0053 25.8276 34.0788 25.9494 34.1228C26.1169 34.1669 26.2996 34.1816 26.4672 34.1522L30.122 34.1081C30.7464 33.9906 31.1728 33.4325 31.0662 32.8302L31.0966 32.8155ZM16.0052 15.1155C15.0002 14.8217 14.4215 13.7935 14.726 12.824C15.0306 11.8546 16.0966 11.2964 17.1017 11.5902C18.1068 11.8839 18.6854 12.9122 18.3809 13.8816C18.0763 14.8511 17.0103 15.4093 16.0052 15.1155Z" fill="white"/>
  <path d="M4.21809 23.5764C5.36022 19.9042 8.87799 17.5393 12.6699 17.5686L12.7308 19.8013C9.8983 19.7426 7.24855 21.4759 6.39575 24.2227C5.37545 27.513 7.30947 31.0089 10.7359 31.9931C14.1623 32.9772 17.3907 31.2733 18.5937 28.2768C18.7612 28.2768 18.9135 28.3209 19.081 28.3062L21.0303 28.2474C21.0303 28.2474 20.9998 28.3796 20.9846 28.4531C19.5988 32.9185 14.6953 35.4449 10.081 34.1083C5.46683 32.7716 2.8323 28.0418 4.21809 23.591V23.5764Z" fill="white"/>
  <path d="M34.203 38H1.79695C0.807107 38 0 37.2215 0 36.2667V1.73328C0 0.778508 0.807107 0 1.79695 0H34.203C35.1929 0 36 0.778508 36 1.73328V36.2667C36 37.2215 35.1929 38 34.203 38ZM1.79695 1.61577C1.79695 1.61577 1.67512 1.67453 1.67512 1.73328V36.2667C1.67512 36.2667 1.72081 36.3842 1.79695 36.3842H34.203C34.203 36.3842 34.3249 36.3255 34.3249 36.2667V1.73328C34.3249 1.73328 34.264 1.61577 34.203 1.61577H1.79695Z" fill="white"/>
  <path d="M27.8372 5.27297L24.5021 8.48982C24.2128 8.76891 23.756 8.76891 23.4818 8.48982C23.2077 8.21073 23.1925 7.77007 23.4818 7.50567L27.3346 3.78939C27.624 3.51031 28.0808 3.51031 28.3549 3.78939L32.2077 7.50567C32.3448 7.63787 32.4209 7.81414 32.4209 8.00509C32.4209 8.19605 32.3448 8.35762 32.2077 8.50451C31.9184 8.7836 31.4615 8.7836 31.1874 8.50451L27.8524 5.28765L27.8372 5.27297Z" fill="white"/>
  <path d="M27.8372 13.9252L24.5021 10.7084C24.2128 10.4293 23.756 10.4293 23.4818 10.7084C23.2077 10.9875 23.1925 11.4281 23.4818 11.6925L27.3346 15.4088C27.624 15.6879 28.0808 15.6879 28.3549 15.4088L32.2077 11.6925C32.3448 11.5603 32.4209 11.3841 32.4209 11.1931C32.4209 11.0022 32.3448 10.8406 32.2077 10.6937C31.9184 10.4146 31.4615 10.4146 31.1874 10.6937L27.8524 13.9105L27.8372 13.9252Z" fill="white"/>
</svg>