<svg xmlns="http://www.w3.org/2000/svg" width="35" height="35" viewBox="0 0 35 35" fill="none">
  <path d="M10.0792 8.84776L12.0646 14.7952C12.8457 17.1415 15.3844 18.4125 17.7278 17.6304L23.3097 15.7728L26.1413 22.8445C26.2715 23.1541 26.5156 23.4148 26.8411 23.5289C26.9875 23.5777 27.134 23.6103 27.2805 23.6103C27.4757 23.6103 27.6548 23.5614 27.8175 23.48L31.0722 21.8506C31.6744 21.541 31.9185 20.8077 31.6255 20.2048C31.3163 19.602 30.6003 19.3575 29.9819 19.6508L27.9151 20.6937L25.1486 13.7849C24.9045 13.182 24.2373 12.8724 23.6352 13.0843L16.963 15.3166C15.8889 15.675 14.7498 15.0885 14.3917 14.0293L14.1802 13.3939L19.5342 11.6015C20.1689 11.3897 20.5269 10.689 20.2991 10.0535C20.0875 9.41807 19.404 9.05959 18.7531 9.28771L13.399 11.0801L12.5854 8.65224C14.2615 8.00047 15.4658 6.38734 15.4658 4.48091C15.4658 2.00419 13.4641 0 10.9905 0C8.51694 0 6.51528 2.00419 6.51528 4.48091C6.51528 6.63175 8.04501 8.44041 10.0792 8.86406V8.84776ZM10.9905 2.42784C12.1134 2.42784 13.0247 3.34032 13.0247 4.46462C13.0247 5.58892 12.1134 6.5014 10.9905 6.5014C9.86766 6.5014 8.95633 5.58892 8.95633 4.46462C8.95633 3.34032 9.86766 2.42784 10.9905 2.42784ZM34.9942 30.405C35.0593 31.0731 34.5711 31.676 33.9038 31.7411L1.35654 35C1.35654 35 1.27517 35 1.22635 35C0.607947 35 0.0709168 34.5275 0.0058222 33.892C-0.0592724 33.2239 0.428937 32.621 1.09616 32.5559L33.6435 29.297C34.2944 29.2155 34.9128 29.7207 34.9779 30.3887L34.9942 30.405ZM1.63319 19.1294C1.63319 14.8766 4.48108 11.2756 8.37048 10.135L9.15162 12.4814C6.23863 13.2961 4.07423 15.952 4.07423 19.1294C4.07423 22.9423 7.1825 26.0545 10.9905 26.0545C14.7986 26.0545 17.5651 23.2356 17.858 19.6834C18.0208 19.6345 18.1998 19.6182 18.3625 19.5694L20.3316 18.9176C20.3316 18.9176 20.3316 19.0642 20.3316 19.1457C20.3316 24.311 16.133 28.5149 10.9743 28.5149C5.81552 28.5149 1.61691 24.311 1.61691 19.1457L1.63319 19.1294Z" fill="white"/>
</svg>