<svg xmlns="http://www.w3.org/2000/svg" width="32" height="34" viewBox="0 0 32 34" fill="none">
  <path d="M28.9555 32.1831C28.8259 31.5201 28.2106 31.0834 27.5468 31.1966L24.9722 31.2451L24.3083 23.6603C24.2597 23.0295 23.7092 22.5444 23.0615 22.5605L16.0665 22.7546C14.933 22.787 14.0101 21.9136 13.9777 20.7977V20.1347L19.564 19.973C20.2279 19.9568 20.7622 19.3907 20.7299 18.7277C20.7299 18.0484 20.1631 17.5309 19.4831 17.5471L13.8644 17.725L13.7996 15.1859C15.5807 15.0404 17.2 13.8598 17.7343 12.0485C18.4468 9.68728 17.1028 7.2129 14.7549 6.50131C12.4071 5.78972 9.91347 7.13204 9.20101 9.47704C8.58571 11.5148 9.52485 13.6819 11.3384 14.6684L11.5165 20.8786C11.5975 23.3368 13.6377 25.2613 16.0989 25.1967L21.9766 25.0188L22.6243 32.5551C22.6567 32.8786 22.8348 33.1858 23.0939 33.4123C23.2234 33.4931 23.353 33.574 23.4825 33.6225C23.6606 33.671 23.8549 33.6872 24.0331 33.6548L27.9192 33.6063C28.5831 33.4769 29.0365 32.8624 28.9231 32.1993L28.9555 32.1831ZM12.909 12.6954C11.8403 12.3719 11.225 11.2398 11.5489 10.1725C11.8727 9.10507 13.0062 8.49052 14.0749 8.81397C15.1435 9.13742 15.7588 10.2695 15.435 11.3369C15.1112 12.4043 13.9777 13.0188 12.909 12.6954Z" fill="white"/>
  <path d="M0.392839 22.0113C1.60725 17.9682 5.34764 15.3644 9.3795 15.3968L9.44427 17.855C6.43252 17.7903 3.61509 19.6986 2.70832 22.7229C1.62345 26.3455 3.67985 30.1946 7.3231 31.2781C10.9663 32.3617 14.3991 30.4857 15.6783 27.1865C15.8564 27.1865 16.0183 27.235 16.1964 27.2188L18.269 27.1541C18.269 27.1541 18.2366 27.2997 18.2205 27.3806C16.747 32.297 11.5331 35.0786 6.62683 33.607C1.7206 32.1353 -1.08065 26.9277 0.392839 22.0275V22.0113Z" fill="white"/>
  <path d="M19.8231 6.53367C19.5478 6.53367 19.3536 6.50132 19.2078 6.43663C19.0621 6.37194 18.9487 6.25874 18.8678 6.09701C18.7868 5.93529 18.7059 5.74122 18.6249 5.48246C18.5601 5.30456 18.4954 5.07815 18.4144 4.78704C18.3334 4.51211 18.2363 4.20483 18.1229 3.86521C18.0258 3.52559 17.9124 3.18597 17.8153 2.81401C17.7019 2.44204 17.6048 2.07007 17.5076 1.69811C17.4753 1.53638 17.4267 1.39083 17.3943 1.24528C17.3619 1.09973 17.3457 0.97035 17.3457 0.824798C17.3457 0.630729 17.3943 0.469003 17.4752 0.355796C17.5562 0.242589 17.6695 0.145554 17.7991 0.0970369C17.9286 0.0485195 18.0744 0.0161759 18.2201 0.0161759C18.4468 0.0161759 18.6087 0.06469 18.7382 0.145552C18.8678 0.226414 18.9487 0.339623 19.0135 0.469002C19.0783 0.598382 19.1269 0.743931 19.1592 0.889483C19.1916 1.03504 19.2078 1.16442 19.224 1.27762L19.645 3.38004C19.6774 3.59028 19.726 3.80052 19.7745 4.01076C19.8231 4.22101 19.8555 4.47977 19.8879 4.77087C19.9365 4.47977 19.985 4.23718 20.0174 4.02694C20.0498 3.8167 20.0984 3.60646 20.147 3.39622L20.6651 1.27762C20.7299 1.05121 20.7784 0.84097 20.8108 0.679246C20.8594 0.517521 20.908 0.388139 20.9728 0.291104C21.0375 0.19407 21.1347 0.113206 21.248 0.080861C21.3614 0.0485161 21.5233 0.0161759 21.7176 0.0161759C21.9281 0.0161759 22.09 0.0323436 22.2034 0.080861C22.3329 0.129378 22.4139 0.19407 22.4948 0.291104C22.5596 0.388139 22.6244 0.517521 22.673 0.679246C22.7215 0.84097 22.7701 1.03504 22.8187 1.27762L23.3206 3.39622C23.3692 3.60646 23.4016 3.8167 23.4502 4.04311C23.4987 4.26952 23.5311 4.51211 23.5797 4.80322C23.6121 4.51211 23.6607 4.25335 23.693 4.02694C23.7254 3.80053 23.774 3.59028 23.8064 3.38004L24.2274 1.26145C24.2436 1.14825 24.276 1.01887 24.3084 0.873313C24.3407 0.727761 24.3731 0.582212 24.4379 0.452833C24.5027 0.323453 24.5836 0.210245 24.7132 0.129382C24.8427 0.0485203 25.0208 0 25.2313 0C25.5066 0 25.7171 0.064688 25.8628 0.194068C26.0247 0.323447 26.1057 0.533694 26.1057 0.824798C26.1057 0.97035 26.1057 1.1159 26.0733 1.24528C26.0409 1.37466 26.0085 1.52021 25.9761 1.68194C25.879 2.0539 25.7657 2.42587 25.6523 2.79783C25.539 3.1698 25.4256 3.52559 25.3285 3.86521C25.2151 4.20483 25.1342 4.49594 25.037 4.77087C24.956 5.0458 24.8751 5.27221 24.8265 5.45011C24.7617 5.70887 24.697 5.91911 24.616 6.06467C24.535 6.22639 24.4055 6.3396 24.2598 6.40429C24.114 6.46898 23.8874 6.50132 23.6283 6.50132C23.3206 6.50132 23.0939 6.45281 22.9482 6.3396C22.8025 6.22639 22.6729 6.06466 22.6082 5.85442C22.5434 5.64418 22.4624 5.36925 22.3815 5.0458L21.9605 3.21832C21.9281 3.05659 21.8795 2.8787 21.8471 2.66846C21.7986 2.45821 21.7662 2.26414 21.7176 2.08625C21.6852 2.26414 21.6528 2.45821 21.6043 2.66846C21.5719 2.86252 21.5233 3.05659 21.5071 3.21832L21.0861 5.0458C21.0214 5.36925 20.9404 5.64418 20.8756 5.85442C20.7947 6.06466 20.6813 6.22639 20.5356 6.3396C20.3736 6.45281 20.147 6.50132 19.8393 6.50132L19.8231 6.53367Z" fill="white"/>
  <path d="M29.5546 6.5175C29.1498 6.5175 28.7612 6.45281 28.405 6.30725C28.0326 6.1617 27.7087 5.96763 27.4172 5.6927C27.1258 5.41777 26.8991 5.07815 26.721 4.69001C26.5429 4.2857 26.4619 3.83287 26.4619 3.31535C26.4619 2.79783 26.5429 2.32883 26.7048 1.90835C26.8667 1.50404 27.0934 1.14824 27.3849 0.873313C27.6763 0.598382 28.0164 0.371965 28.3888 0.226413C28.7774 0.0808612 29.1822 0 29.6032 0C29.9594 0 30.2833 0.0485168 30.6071 0.113207C30.9148 0.194069 31.19 0.307278 31.4167 0.469002C31.5948 0.582209 31.7244 0.711589 31.8377 0.873313C31.9349 1.03504 31.9996 1.21293 31.9996 1.407C31.9996 1.63341 31.9349 1.81131 31.7891 1.94069C31.6434 2.07007 31.4653 2.15094 31.2548 2.15094C31.0767 2.15094 30.9472 2.11859 30.85 2.0539C30.7529 1.97304 30.6557 1.90835 30.5585 1.82749C30.4938 1.7628 30.429 1.69811 30.348 1.64959C30.2671 1.5849 30.1699 1.53638 30.0566 1.50404C29.9432 1.47169 29.7975 1.43935 29.6356 1.43935C29.2956 1.43935 29.0203 1.52021 28.8098 1.68194C28.5993 1.84366 28.4212 2.07007 28.3078 2.34501C28.1945 2.61994 28.1297 2.92721 28.1297 3.26683C28.1297 3.6388 28.1945 3.96225 28.3078 4.23718C28.4374 4.51211 28.6155 4.72236 28.8422 4.86791C29.0689 5.01346 29.3603 5.07815 29.6842 5.07815C29.8461 5.07815 29.9918 5.04581 30.1052 5.01346C30.2185 4.98112 30.3157 4.91643 30.3966 4.86791C30.4776 4.80322 30.5585 4.7547 30.6071 4.69001C30.7043 4.60915 30.8014 4.54446 30.8986 4.47977C30.9957 4.41508 31.1091 4.39891 31.2386 4.39891C31.4815 4.39891 31.6758 4.47977 31.7891 4.62532C31.9025 4.77087 31.9673 4.94877 31.9673 5.15901C31.9673 5.38543 31.8863 5.57949 31.7406 5.74122C31.5948 5.90294 31.4329 6.01615 31.2386 6.12936C30.9957 6.27491 30.7367 6.37194 30.4452 6.43663C30.1537 6.50132 29.8623 6.53367 29.5546 6.53367V6.5175Z" fill="white"/>
</svg>