<svg xmlns="http://www.w3.org/2000/svg" width="38" height="42" viewBox="0 0 38 42" fill="none">
  <path d="M15.1112 25.3655C14.4432 25.1803 14.0614 24.486 14.2523 23.8379C14.459 23.1898 15.1589 22.8195 15.827 23.0047C16.4951 23.2053 16.8928 23.8996 16.686 24.5477C16.4951 25.1957 15.7793 25.566 15.1112 25.3655Z" fill="white"/>
  <path d="M0 41.1506C0 41.6289 0.397666 41.9992 0.874859 41.9992H30.5881C31.0812 41.9992 31.4629 41.6134 31.4629 41.1506V17.9595H0V41.1506ZM12.8206 23.4062C13.266 21.9712 14.8248 21.1535 16.3041 21.5855C17.7834 22.0175 18.6105 23.5297 18.181 24.9646C17.8311 26.0602 16.829 26.8008 15.7156 26.8779L15.7633 28.4209L19.2786 28.3129C19.6922 28.3129 20.0421 28.6215 20.058 29.0381C20.058 29.4393 19.7399 29.7787 19.3104 29.7942L15.7951 29.8868V30.2879C15.8269 30.9668 16.4154 31.4915 17.1153 31.476L21.5055 31.3526C21.9032 31.3526 22.2531 31.6303 22.269 32.0161L22.6826 36.645L24.305 36.5987C24.7027 36.537 25.1163 36.7839 25.1799 37.2005C25.2594 37.6017 24.9731 37.9874 24.5436 38.0492L22.1099 38.0954C21.9986 38.0954 21.8713 38.0954 21.76 38.0954C21.6805 38.0646 21.585 38.0183 21.5214 37.9566C21.3464 37.8331 21.2351 37.648 21.2192 37.4474L20.8215 32.8493L17.1471 32.9573C15.6042 33.019 14.3158 31.8309 14.2681 30.3342L14.1567 26.5539C13.0115 25.9521 12.4229 24.6406 12.8206 23.3908V23.4062ZM7.26923 31.044C8.01683 28.5906 10.371 27.0014 12.9001 27.0168L12.9478 28.5135C11.055 28.4826 9.30528 29.6399 8.73264 31.476C8.04867 33.6825 9.35298 36.0124 11.6276 36.6913C13.7909 37.3085 16.0496 36.1976 16.8608 34.1917C16.9722 34.1917 17.0835 34.2225 17.1949 34.2225L18.4833 34.1763C18.4833 34.1763 18.4833 34.2688 18.4515 34.3151C17.5289 37.3085 14.2681 39.0058 11.1822 38.1109C8.11228 37.2159 6.34667 34.0528 7.28515 31.0594L7.26923 31.044ZM30.5881 8.43926H16.4314V16.6017H31.4629V9.30333C31.4629 8.825 31.0653 8.45469 30.5881 8.45469V8.43926ZM15.0475 8.43926H0.890757C0.397657 8.43926 0.0158977 8.82501 0.0158977 9.2879V16.5862H15.0634V8.42383L15.0475 8.43926Z" fill="white"/>
  <path d="M36.0595 7.3909C35.8369 7.3909 35.6619 7.34461 35.5346 7.26746C35.4074 7.19031 35.3278 7.0823 35.2801 6.97429C35.2324 6.86629 35.2165 6.75828 35.2165 6.6657V5.87877H32.7192C32.4806 5.87877 32.2897 5.83248 32.1466 5.7399C32.0034 5.64732 31.8762 5.53931 31.8125 5.38502C31.733 5.24615 31.7012 5.09185 31.7012 4.93755C31.7012 4.79868 31.7012 4.65981 31.7648 4.53637C31.8125 4.41294 31.8761 4.28949 31.9557 4.16606C32.0511 4.01176 32.1625 3.84203 32.2897 3.64144C32.417 3.44085 32.5442 3.24027 32.6874 3.02425C32.8305 2.80823 32.9578 2.59221 33.1009 2.36077C33.2441 2.12932 33.3873 1.9133 33.5304 1.69728C33.6736 1.48126 33.8008 1.26525 33.9281 1.06466C34.0553 0.86407 34.1667 0.67891 34.278 0.509182C34.3576 0.385743 34.4371 0.293166 34.5484 0.216017C34.6439 0.138868 34.787 0.0925772 34.962 0.0462877C35.137 0.015428 35.3756 0 35.6619 0C35.9959 0 36.2345 0.0308566 36.4095 0.123436C36.5845 0.200585 36.7117 0.324023 36.7753 0.478322C36.839 0.63262 36.8867 0.83321 36.8867 1.06466V4.50551H37.3639C37.5707 4.50551 37.7297 4.56723 37.8411 4.69067C37.9524 4.81411 38.0001 4.96841 38.0001 5.13814C38.0001 5.33873 37.9524 5.50846 37.8411 5.64733C37.7297 5.78619 37.5707 5.84791 37.3798 5.84791H36.9026V6.65026C36.9026 6.75827 36.8867 6.86629 36.839 6.97429C36.7913 7.0823 36.7117 7.17488 36.6004 7.25203C36.4731 7.32918 36.314 7.36004 36.0754 7.36004L36.0595 7.3909ZM35.2483 4.53637V2.45335L35.296 1.49669C35.2483 1.58927 35.1847 1.69728 35.1211 1.82072C35.0574 1.92873 34.9779 2.03674 34.9143 2.14475C34.8507 2.25276 34.8029 2.32991 34.7711 2.39163C34.6757 2.57678 34.5802 2.74651 34.4689 2.93167C34.3576 3.11683 34.2462 3.30199 34.1349 3.48714C34.0235 3.6723 33.9122 3.85746 33.8167 4.02719C33.7213 4.19692 33.6259 4.36665 33.5304 4.50551H35.2642L35.2483 4.53637Z" fill="white"/>
</svg>