<svg xmlns="http://www.w3.org/2000/svg" width="27" height="41" viewBox="0 0 27 41" fill="none">
  <path d="M26.9655 39.2912C26.8522 38.6714 26.2694 38.2474 25.6543 38.3615L23.2584 38.4105L22.6432 31.2828C22.5947 30.6793 22.0928 30.2226 21.4938 30.2552L14.9861 30.4346C13.9338 30.4672 13.0596 29.6517 13.0434 28.5915V27.9717L18.2561 27.8249C18.8713 27.8086 19.3731 27.2704 19.3408 26.6506C19.3408 26.0145 18.8065 25.5251 18.1752 25.5415L12.9463 25.7046L12.8816 23.3232C14.549 23.1927 16.0383 22.0673 16.5563 20.371C17.2201 18.1528 15.9736 15.8367 13.7719 15.168C11.5703 14.4992 9.27153 15.7551 8.6078 17.9734C8.0412 19.898 8.9154 21.9205 10.599 22.8502L10.7609 28.6894C10.8256 30.9892 12.7359 32.8159 15.0346 32.7507L20.5063 32.5876L21.1215 39.6664C21.1539 39.9763 21.3157 40.2699 21.5586 40.4656C21.6719 40.5471 21.8014 40.6124 21.9309 40.6613C22.0928 40.7102 22.2709 40.7103 22.4489 40.6939L26.059 40.645C26.6742 40.5308 27.095 39.9436 26.9817 39.3238L26.9655 39.2912ZM12.0398 20.9908C11.0361 20.6809 10.4857 19.637 10.7771 18.6258C11.0685 17.6145 12.1207 17.06 13.1244 17.3536C14.1281 17.6472 14.6785 18.7073 14.3871 19.7186C14.0957 20.7298 13.0435 21.2844 12.0398 20.9908Z" fill="white"/>
  <path d="M0.367684 29.7498C1.50088 25.9494 4.9814 23.5029 8.73712 23.5355L8.80189 25.8353C6.00128 25.7863 3.37873 27.5642 2.53693 30.4022C1.51706 33.8111 3.4435 37.4157 6.82689 38.4433C10.2103 39.4709 13.4156 37.693 14.6135 34.594C14.7754 34.594 14.9373 34.6266 15.0992 34.6266L17.0256 34.5614C17.0256 34.5614 16.9933 34.6919 16.9771 34.7734C15.6011 39.3893 10.7607 42.0153 6.17934 40.6289C1.598 39.2425 -1.00834 34.3657 0.367684 29.7498Z" fill="white"/>
  <path d="M7.66888 11.2877C7.66888 10.7658 7.24798 10.3417 6.72995 10.3417C6.21192 10.3417 5.79102 10.7658 5.79102 11.2877C5.79102 11.8097 6.21192 12.2337 6.72995 12.2337C7.24798 12.2337 7.66888 11.8097 7.66888 11.2877ZM12.3474 12.2337C11.8293 12.2337 11.4084 11.8097 11.4084 11.2877C11.4084 10.7658 11.8293 10.3417 12.3474 10.3417C12.8654 10.3417 13.2863 10.7658 13.2863 11.2877C13.2863 11.8097 12.8654 12.2337 12.3474 12.2337ZM18.418 12.2337C18.9361 12.2337 19.357 11.8097 19.357 11.2877C19.357 10.7658 18.9361 10.3417 18.418 10.3417C17.9 10.3417 17.4791 10.7658 17.4791 11.2877C17.4791 11.8097 17.9 12.2337 18.418 12.2337ZM9.30391 8.89007C8.78588 8.89007 8.36498 8.466 8.36498 7.94406C8.36498 7.42212 8.78588 6.99805 9.30391 6.99805C9.82194 6.99805 10.2428 7.42212 10.2428 7.94406C10.2428 8.466 9.82194 8.89007 9.30391 8.89007ZM15.3746 8.89007C15.8926 8.89007 16.3135 8.466 16.3135 7.94406C16.3135 7.42212 15.8926 6.99805 15.3746 6.99805C14.8566 6.99805 14.4357 7.42212 14.4357 7.94406C14.4357 8.466 14.8566 8.89007 15.3746 8.89007Z" fill="white"/>
  <path d="M17.479 5.62694H6.89172C6.47082 5.62694 6.13086 5.28442 6.13086 4.86035C6.13086 4.43627 6.47082 4.09375 6.89172 4.09375H17.479C17.8999 4.09375 18.2399 4.43627 18.2399 4.86035C18.2399 5.28442 17.8999 5.62694 17.479 5.62694Z" fill="white"/>
  <path d="M12.1857 5.62714C11.7648 5.62714 11.4248 5.28462 11.4248 4.86054V0.766597C11.4248 0.342523 11.7648 0 12.1857 0C12.6066 0 12.9465 0.342523 12.9465 0.766597V4.86054C12.9465 5.28462 12.6066 5.62714 12.1857 5.62714Z" fill="white"/>
</svg>