<svg xmlns="http://www.w3.org/2000/svg" width="38" height="34" viewBox="0 0 38 34" fill="none">
  <path d="M19.0001 20.2967C19.4515 20.2967 19.8897 20.1926 20.288 19.9976L16.3181 16.123C16.1322 16.5131 16.0127 16.9292 16.0127 17.3712C16.0127 18.9835 17.3537 20.2967 19.0001 20.2967Z" fill="white"/>
  <path d="M16.6761 25.2376C19.2652 25.8227 21.9207 25.4066 24.4168 24.0544L21.7481 21.4411C20.9381 21.9611 19.9954 22.2472 18.9996 22.2472C16.2645 22.2472 14.0206 20.0629 14.0206 17.3715C14.0206 16.4093 14.326 15.4732 14.8571 14.6931L11.9095 11.8066C10.0639 13.1718 8.3777 15.0181 6.89062 17.3715C9.62578 21.6881 12.9982 24.4055 16.6761 25.2376Z" fill="white"/>
  <path d="M36.2739 0H1.72607C0.783372 0 0 0.767115 0 1.70325V32.3097C0 33.2459 0.783372 34 1.72607 34H36.2739C37.2299 34 38 33.2459 38 32.3097V1.70325C38 0.767115 37.2299 0 36.2739 0ZM32.9811 31.0616C32.7952 31.2566 32.543 31.3476 32.2774 31.3476C32.0119 31.3476 31.7729 31.2566 31.5737 31.0616L25.8512 25.4577C23.6604 26.7579 21.3501 27.447 19 27.447C18.0839 27.447 17.1544 27.343 16.225 27.135C11.87 26.1468 7.9399 22.9484 4.87281 17.8646C4.68693 17.5656 4.68693 17.1755 4.87281 16.8765C6.50594 14.1721 8.4046 12.0138 10.4892 10.4145L5.01887 5.05775C4.63382 4.68069 4.63382 4.0566 5.01887 3.67954C5.41719 3.30249 6.04123 3.30249 6.42627 3.67954L32.9811 29.6834C33.3795 30.0604 33.3795 30.6845 32.9811 31.0616ZM33.1405 17.8646C31.8393 20.0229 30.3788 21.8302 28.7987 23.2864L27.3781 21.8952C28.7191 20.673 29.9804 19.1778 31.1223 17.3706C30.87 16.9935 30.6177 16.6425 30.3655 16.2914L26.0105 20.556L24.6031 19.1778L29.1572 14.7182C28.6793 14.1461 28.188 13.626 27.6835 13.1449L23.0629 17.6696L21.6555 16.2914L26.1831 11.8577C25.5723 11.4027 24.9616 10.9866 24.3243 10.6486L20.1153 14.7702L18.7079 13.392L22.3857 9.79044C21.536 9.5174 20.673 9.37438 19.7967 9.30937L17.1544 11.8838L15.747 10.5055L16.7694 9.5044C16.2516 9.62142 15.7205 9.77744 15.2027 9.97247L13.6625 8.46425C15.3753 7.69713 17.1677 7.29407 19 7.29407C24.3906 7.29407 29.4095 10.7006 33.1405 16.8765C33.3264 17.1755 33.3264 17.5656 33.1405 17.8646ZM34.3487 8.64627C34.2823 8.73729 34.1894 8.8153 34.0965 8.8543C33.9902 8.90631 33.8973 8.93232 33.7911 8.93232C33.6317 8.93232 33.5122 8.90631 33.406 8.8283C33.3131 8.76329 33.2334 8.67228 33.1803 8.55526C33.1272 8.43824 33.0741 8.30822 33.0343 8.1652L32.9015 7.77515H31.3082L31.1754 8.1652C31.1223 8.30822 31.0825 8.43824 31.0161 8.55526C30.963 8.67228 30.8833 8.76329 30.7904 8.8283C30.6974 8.90631 30.5646 8.93232 30.4053 8.93232C30.3124 8.93232 30.2062 8.90631 30.1132 8.8543C30.007 8.8153 29.9273 8.73729 29.8609 8.64627C29.7946 8.55526 29.7547 8.43824 29.7547 8.29522C29.7547 8.23021 29.768 8.1522 29.7946 8.06119C29.8078 7.97017 29.8477 7.87916 29.8875 7.77515L31.0293 5.05775C31.0957 4.87572 31.1621 4.7197 31.2152 4.58968C31.2816 4.45966 31.348 4.35564 31.4144 4.27763C31.4941 4.18662 31.5737 4.12161 31.68 4.0826C31.7862 4.0436 31.9322 4.01759 32.1048 4.01759C32.2774 4.01759 32.4102 4.0436 32.5164 4.0826C32.6227 4.12161 32.7156 4.18662 32.782 4.27763C32.8616 4.35564 32.9147 4.45966 32.9811 4.58968C33.0342 4.7197 33.1006 4.87572 33.1803 5.05775L34.3089 7.77515C34.362 7.87916 34.3885 7.97017 34.4151 8.06119C34.4284 8.1522 34.4417 8.23021 34.4417 8.29522C34.4417 8.43824 34.4151 8.55526 34.3487 8.64627ZM32.2376 5.62983C32.1845 5.47381 32.1447 5.33078 32.1048 5.20076C32.065 5.33078 32.0252 5.47381 31.9721 5.62983C31.9189 5.78585 31.8658 5.92887 31.826 6.04589L31.4808 6.95603H32.7289L32.3704 6.04589C32.3306 5.92887 32.2774 5.78585 32.2376 5.62983Z" fill="white"/>
</svg>