<svg width="26" height="25" viewBox="0 0 26 25" fill="none" xmlns="http://www.w3.org/2000/svg">
<mask id="mask0_1593_9738" style="mask-type:alpha" maskUnits="userSpaceOnUse" x="0" y="0" width="26" height="25">
<rect x="0.470337" width="25" height="25" fill="#D9D9D9"/>
</mask>
<g mask="url(#mask0_1593_9738)">
<path d="M4.63692 21.875C4.06401 21.875 3.57355 21.671 3.16557 21.263C2.75758 20.855 2.55359 20.3646 2.55359 19.7917V7.29167H4.63692V19.7917H20.2619V21.875H4.63692ZM8.80359 17.7083C8.23067 17.7083 7.74022 17.5043 7.33223 17.0964C6.92425 16.6884 6.72026 16.1979 6.72026 15.625V3.125H24.4286V15.625C24.4286 16.1979 24.2246 16.6884 23.8166 17.0964C23.4086 17.5043 22.9182 17.7083 22.3453 17.7083H8.80359ZM8.80359 15.625H22.3453V5.20833H8.80359V15.625ZM10.8869 12.5H15.0536V7.29167H10.8869V12.5ZM16.0953 12.5H20.2619V10.4167H16.0953V12.5ZM16.0953 9.375H20.2619V7.29167H16.0953V9.375Z" fill="currentColor"/>
</g>
</svg>
