<svg width="24" height="24" viewBox="0 0 24 24" fill="none" xmlns="http://www.w3.org/2000/svg">
<mask id="mask0_1607_69533" style="mask-type:luminance" maskUnits="userSpaceOnUse" x="0" y="1" width="23" height="23">
<path d="M22.2504 9.99909H12.0005V14.2519H17.8984C17.35 16.9529 15.0457 18.5047 12.0005 18.5047C8.40106 18.5047 5.50169 15.6053 5.50169 12.0059C5.50169 8.40648 8.40106 5.50711 12.0005 5.50711C13.5523 5.50711 14.9523 6.05548 16.0491 6.95971L19.2518 3.75699C17.3033 2.05937 14.8007 1.0093 12.0005 1.0093C5.89839 0.997631 0.998047 5.89797 0.998047 12.0001C0.998047 18.1022 5.89839 23.0025 12.0005 23.0025C17.5017 23.0025 22.5012 19.0005 22.5012 12.0001C22.5012 11.3525 22.402 10.6525 22.2504 9.99909Z" fill="white"/>
</mask>
<g mask="url(#mask0_1607_69533)">
<path d="M0 18.4988V5.50122L8.49976 12L0 18.4988Z" fill="#FB8500"/>
</g>
<mask id="mask1_1607_69533" style="mask-type:luminance" maskUnits="userSpaceOnUse" x="0" y="1" width="23" height="23">
<path d="M22.2504 9.99909H12.0005V14.2519H17.8984C17.35 16.9529 15.0457 18.5047 12.0005 18.5047C8.40106 18.5047 5.50169 15.6053 5.50169 12.0059C5.50169 8.40648 8.40106 5.50711 12.0005 5.50711C13.5523 5.50711 14.9523 6.05548 16.0491 6.95971L19.2518 3.75699C17.3033 2.05937 14.8007 1.0093 12.0005 1.0093C5.89839 0.997631 0.998047 5.89797 0.998047 12.0001C0.998047 18.1022 5.89839 23.0025 12.0005 23.0025C17.5017 23.0025 22.5012 19.0005 22.5012 12.0001C22.5012 11.3525 22.402 10.6525 22.2504 9.99909Z" fill="white"/>
</mask>
<g mask="url(#mask1_1607_69533)">
<path d="M0 5.50122L8.49976 12L12 8.94895L24 7.00049V0H0V5.50122Z" fill="#EA4335"/>
</g>
<mask id="mask2_1607_69533" style="mask-type:luminance" maskUnits="userSpaceOnUse" x="0" y="1" width="23" height="23">
<path d="M22.2504 9.99909H12.0005V14.2519H17.8984C17.35 16.9529 15.0457 18.5047 12.0005 18.5047C8.40106 18.5047 5.50169 15.6053 5.50169 12.0059C5.50169 8.40648 8.40106 5.50711 12.0005 5.50711C13.5523 5.50711 14.9523 6.05548 16.0491 6.95971L19.2518 3.75699C17.3033 2.05937 14.8007 1.0093 12.0005 1.0093C5.89839 0.997631 0.998047 5.89797 0.998047 12.0001C0.998047 18.1022 5.89839 23.0025 12.0005 23.0025C17.5017 23.0025 22.5012 19.0005 22.5012 12.0001C22.5012 11.3525 22.402 10.6525 22.2504 9.99909Z" fill="white"/>
</mask>
<g mask="url(#mask2_1607_69533)">
<path d="M0 18.4988L14.9985 7.00049L18.948 7.50219L24 0V24H0V18.4988Z" fill="#34A853"/>
</g>
<mask id="mask3_1607_69533" style="mask-type:luminance" maskUnits="userSpaceOnUse" x="0" y="1" width="23" height="23">
<path d="M22.2504 9.99909H12.0005V14.2519H17.8984C17.35 16.9529 15.0457 18.5047 12.0005 18.5047C8.40106 18.5047 5.50169 15.6053 5.50169 12.0059C5.50169 8.40648 8.40106 5.50711 12.0005 5.50711C13.5523 5.50711 14.9523 6.05548 16.0491 6.95971L19.2518 3.75699C17.3033 2.05937 14.8007 1.0093 12.0005 1.0093C5.89839 0.997631 0.998047 5.89797 0.998047 12.0001C0.998047 18.1022 5.89839 23.0025 12.0005 23.0025C17.5017 23.0025 22.5012 19.0005 22.5012 12.0001C22.5012 11.3525 22.402 10.6525 22.2504 9.99909Z" fill="white"/>
</mask>
<g mask="url(#mask3_1607_69533)">
<path d="M24.0002 24L8.5 12L6.49902 10.5007L24.0002 5.50122V24Z" fill="#4285F4"/>
</g>
</svg>
