<svg width="80" height="80" viewBox="0 0 80 80" fill="none" xmlns="http://www.w3.org/2000/svg">
<mask id="mask0_1277_7473" style="mask-type:alpha" maskUnits="userSpaceOnUse" x="0" y="0" width="80" height="80">
<rect width="79.7578" height="79.7578" fill="#D9D9D9"/>
</mask>
<g mask="url(#mask0_1277_7473)">
<path d="M27.0969 40.3903V46.5259C27.0969 50.0535 28.3453 53.0657 30.8422 55.5626C33.339 58.0595 36.3513 59.3079 39.8789 59.3079C43.4065 59.3079 46.4188 58.0595 48.9156 55.5626C51.4125 53.0657 52.6609 50.0535 52.6609 46.5259V40.3903H27.0969ZM39.8789 55.3449C37.4247 55.3449 35.3413 54.4886 33.6287 52.7761C31.9161 51.0635 31.0599 48.9801 31.0599 46.5259V44.3533H48.698V46.5259C48.698 48.9801 47.8417 51.0635 46.1291 52.7761C44.4165 54.4886 42.3331 55.3449 39.8789 55.3449ZM28.2476 23.7741C26.3345 23.7741 24.6197 24.456 23.1032 25.8196C21.5861 27.1827 20.4953 29.055 19.8306 31.4367L23.659 32.3763C24.055 30.9789 24.6673 29.8618 25.4959 29.0249C26.3251 28.1874 27.2423 27.7581 28.2476 27.7371C29.2528 27.7581 30.1701 28.1874 30.9992 29.0249C31.8278 29.8618 32.4401 30.9789 32.8361 32.3763L36.6645 31.4367C35.9999 29.055 34.909 27.1827 33.3919 25.8196C31.8754 24.456 30.1606 23.7741 28.2476 23.7741ZM51.5103 23.7741C49.5972 23.7741 47.8824 24.456 46.3659 25.8196C44.8488 27.1827 43.758 29.055 43.0933 31.4367L46.9217 32.3763C47.3177 30.9579 47.9248 29.8299 48.7428 28.9925C49.5609 28.1556 50.4834 27.7371 51.5103 27.7371C52.5371 27.7371 53.4596 28.1556 54.2777 28.9925C55.0958 29.8299 55.7028 30.9579 56.0988 32.3763L59.9272 31.4367C59.2625 29.055 58.1717 27.1827 56.6546 25.8196C55.1381 24.456 53.4233 23.7741 51.5103 23.7741ZM39.8847 71.4502C35.518 71.4502 31.4135 70.6216 27.5713 68.9644C23.7291 67.3072 20.387 65.0582 17.5451 62.2174C14.7031 59.3766 12.453 56.0359 10.7947 52.1953C9.13698 48.3548 8.30811 44.2514 8.30811 39.8852C8.30811 35.5185 9.1367 31.414 10.7939 27.5718C12.4511 23.7295 14.7001 20.3875 17.5409 17.5455C20.3817 14.7036 23.7224 12.4535 27.563 10.7952C31.4035 9.13747 35.5069 8.30859 39.8731 8.30859C44.2398 8.30859 48.3443 9.13719 52.1865 10.7944C56.0288 12.4516 59.3708 14.7006 62.2128 17.5414C65.0547 20.3822 67.3048 23.7229 68.9631 27.5635C70.6208 31.404 71.4497 35.5074 71.4497 39.8736C71.4497 44.2403 70.6211 48.3448 68.9639 52.187C67.3067 56.0292 65.0577 59.3713 62.2169 62.2132C59.3761 65.0552 56.0354 67.3053 52.1948 68.9636C48.3543 70.6213 44.2509 71.4502 39.8847 71.4502ZM39.8789 66.4653C47.3008 66.4653 53.5873 63.8898 58.7383 58.7388C63.8893 53.5878 66.4648 47.3013 66.4648 39.8794C66.4648 32.4575 63.8893 26.171 58.7383 21.02C53.5873 15.869 47.3008 13.2935 39.8789 13.2935C32.457 13.2935 26.1705 15.869 21.0195 21.02C15.8685 26.171 13.293 32.4575 13.293 39.8794C13.293 47.3013 15.8685 53.5878 21.0195 58.7388C26.1705 63.8898 32.457 66.4653 39.8789 66.4653Z" fill="#FB8500"/>
</g>
</svg>
