<svg class="text-primary bg-icon" width="52" height="52" viewBox="0 0 52 52" fill="none" xmlns="http://www.w3.org/2000/svg">
<rect x="1" y="1" width="50" height="50" rx="7" fill="white"  class="icon-bg-rect"/>
<rect x="1" y="1" width="50" height="50" rx="7" stroke="#FB8500" stroke-width="2"/>
<path d="M39.6876 39.2977C39.4722 39.507 39.1993 39.6047 38.9264 39.6047C38.6535 39.6047 38.3806 39.507 38.1652 39.2977L21.3321 22.9442V24.6047C21.3321 25.1767 20.8438 25.6512 20.2549 25.6512C19.6661 25.6512 19.1777 25.1767 19.1777 24.6047V21.814C19.1777 21.5209 19.2352 21.2279 19.2639 20.9349L17.526 19.2465C17.1957 20.2093 17.009 21.214 17.009 22.2186V26.1116C17.009 27.1442 17.9713 27.7302 18.8905 27.7442C21.0305 27.786 22.754 29.5023 22.754 31.5814V35.7674C22.754 37.4977 24.2047 38.907 25.9856 38.907H28.8582C29.8492 38.907 30.6535 38.1256 30.6535 37.1628C30.6535 36.5907 31.1418 36.1163 31.7307 36.1163C32.3196 36.1163 32.8079 36.5907 32.8079 37.1628C32.8079 39.2837 31.0413 41 28.8582 41H25.9856C23.0126 41 20.5996 38.6558 20.5996 35.7674V31.5814C20.5996 30.6326 19.8097 29.8512 18.8474 29.8372C16.6068 29.7953 14.8546 28.1628 14.8546 26.1116V22.2186C14.8546 20.6419 15.2136 19.0791 15.86 17.6419L12.3124 14.1814C11.8959 13.7767 11.8959 13.107 12.3124 12.7023C12.7289 12.2977 13.4183 12.2977 13.8348 12.7023L39.6876 37.8186C40.1041 38.2233 40.1041 38.893 39.6876 39.2977ZM26 15.186C24.061 15.186 22.3088 15.9953 21.0736 17.2651L22.596 18.7442C23.4434 17.8512 24.6499 17.2791 26 17.2791C28.5709 17.2791 30.6679 19.3163 30.6679 21.814C30.6679 22.386 31.1562 22.8605 31.7451 22.8605C32.3339 22.8605 32.8223 22.386 32.8223 21.814C32.8223 18.1581 29.763 15.186 26 15.186ZM26 13.093C30.9551 13.093 34.9767 17 34.9767 21.814C34.9767 22.386 35.465 22.8605 36.0539 22.8605C36.6427 22.8605 37.1311 22.386 37.1311 21.814C37.1311 15.8558 32.1329 11 26 11C22.8689 11 20.0395 12.2698 18.0144 14.293L19.5368 15.7721C21.1741 14.1256 23.4578 13.093 26 13.093Z" fill="#FB8500"/>
</svg>
