<svg xmlns="http://www.w3.org/2000/svg" width="17" height="17" viewBox="0 0 17 17" fill="none">
  <mask id="mask0_1442_10147" style="mask-type:alpha" maskUnits="userSpaceOnUse" x="0" y="0" width="17" height="17">
    <rect width="17" height="17" fill="#D9D9D9"/>
  </mask>
  <g mask="url(#mask0_1442_10147)">
    <path d="M8.5002 12.7492C9.68075 12.7492 10.6842 12.336 11.5106 11.5096C12.337 10.6832 12.7502 9.67977 12.7502 8.49922C12.7502 7.31866 12.337 6.31519 11.5106 5.4888C10.6842 4.66241 9.68075 4.24922 8.5002 4.24922V8.49922L5.48978 11.5096C5.87936 11.8874 6.33092 12.1885 6.84447 12.4128C7.35801 12.6371 7.90992 12.7492 8.5002 12.7492ZM8.50515 15.2992C7.56921 15.2992 6.68804 15.1221 5.86165 14.768C5.03526 14.4138 4.31217 13.9268 3.69238 13.307C3.07259 12.6872 2.58561 11.9644 2.23145 11.1385C1.87728 10.3126 1.7002 9.43009 1.7002 8.49107C1.7002 7.55206 1.87728 6.67231 2.23145 5.85182C2.58561 5.03134 3.07259 4.3112 3.69238 3.69141C4.31217 3.07161 5.03503 2.58464 5.86095 2.23047C6.68686 1.8763 7.56933 1.69922 8.50834 1.69922C9.44736 1.69922 10.3271 1.8763 11.1476 2.23047C11.9681 2.58464 12.6882 3.07161 13.308 3.69141C13.9278 4.3112 14.4148 5.03263 14.7689 5.85572C15.1231 6.67892 15.3002 7.55843 15.3002 8.49426C15.3002 9.43021 15.1231 10.3114 14.7689 11.1378C14.4148 11.9641 13.9278 12.6872 13.308 13.307C12.6882 13.9268 11.9668 14.4138 11.1437 14.768C10.3205 15.1221 9.44098 15.2992 8.50515 15.2992Z" fill="#0B0A0A"/>
  </g>
</svg>