<svg xmlns="http://www.w3.org/2000/svg" width="16" height="16" viewBox="0 0 16 16" aria-hidden="true" focusable="false" fill="none">
  <g clip-path="url(#clip0_1433_9592)">
    <path fill-rule="evenodd" clip-rule="evenodd" d="M7.98814 12.7669C5.39177 12.7669 3.27344 10.6486 3.27344 8.0522C3.27344 5.45583 5.39177 3.32812 7.98814 3.32812C10.5939 3.32812 12.7122 5.45583 12.7122 8.0522C12.7122 10.6673 10.5939 12.7669 7.98814 12.7669ZM7.98814 3.78741C5.63548 3.78741 3.72335 5.69954 3.72335 8.0522C3.72335 10.4049 5.63548 12.317 7.98814 12.317C10.3408 12.317 12.2529 10.4049 12.2529 8.0522C12.2529 5.69954 10.3408 3.78741 7.98814 3.78741Z" fill="#149CBC"/>
    <path fill-rule="evenodd" clip-rule="evenodd" d="M8.02587 15.9906C7.60408 15.9906 7.26664 15.6719 6.91984 15.3439C6.68551 15.1189 6.46055 14.8846 6.22622 14.819C6.00127 14.7721 5.67321 14.8471 5.36389 14.9315C4.89523 15.0439 4.4172 15.1564 4.01415 14.9408C3.61111 14.7065 3.47051 14.2285 3.33929 13.7598C3.24555 13.4411 3.15182 13.1318 3.00185 12.9725C2.84251 12.8225 2.51445 12.7194 2.20513 12.6257C1.76459 12.4944 1.29594 12.3632 1.08973 11.9883C0.883516 11.6134 0.995994 11.1541 1.11785 10.7042C1.19283 10.3948 1.28656 10.0762 1.22095 9.86057C1.16471 9.64499 0.930382 9.42004 0.714799 9.18571C0.386738 8.85765 0.0118115 8.48272 0.0586773 7.99531C0.0118115 7.52666 0.386738 7.15173 0.714799 6.81429C0.930382 6.59871 1.16471 6.36438 1.23032 6.13943C1.28656 5.93322 1.2022 5.60516 1.12722 5.29584C1.00537 4.8553 0.883516 4.38664 1.0991 4.02109C1.30531 3.64616 1.77397 3.51494 2.21451 3.38371C2.53319 3.28998 2.85188 3.20562 3.01123 3.03691C3.17057 2.87756 3.25493 2.5495 3.34866 2.24956C3.47988 1.7809 3.62048 1.30287 4.02353 1.06854C4.42657 0.834212 4.91398 0.956063 5.37326 1.06854C5.69195 1.14353 6.01064 1.22789 6.2356 1.17165C6.46055 1.12478 6.70425 0.890451 6.93858 0.656122C7.27602 0.328061 7.61345 0 8.04462 0C8.47578 0 8.81322 0.337434 9.13191 0.665495C9.36623 0.890451 9.60056 1.13415 9.80677 1.19039C10.0317 1.23726 10.341 1.16227 10.6504 1.08729C11.1003 0.965437 11.5689 0.834212 11.9439 1.05917C12.3188 1.26538 12.45 1.71529 12.5812 2.1652C12.6656 2.47452 12.7593 2.80258 12.928 2.95255C13.0968 3.12127 13.4154 3.215 13.7248 3.30873C14.1934 3.43995 14.6714 3.58055 14.8964 3.9836C15.112 4.3679 14.9995 4.86467 14.8777 5.33333C14.8027 5.64265 14.7277 5.97071 14.7746 6.19567C14.8402 6.41125 15.0745 6.65495 15.2995 6.88928C15.6181 7.23609 15.9556 7.57352 15.9462 7.99531C15.9556 8.42648 15.6181 8.78266 15.2995 9.12009C15.0745 9.35442 14.8402 9.59813 14.7746 9.81371C14.7277 10.0387 14.8027 10.3667 14.8777 10.676C14.9995 11.1447 15.112 11.6227 14.8964 12.0258C14.6621 12.4288 14.1747 12.5788 13.706 12.7006C13.3967 12.7944 13.0874 12.8881 12.928 13.0381C12.7593 13.2068 12.6656 13.5349 12.5812 13.8442C12.45 14.2941 12.3188 14.744 11.9439 14.969C11.5689 15.1752 11.1096 15.0533 10.6504 14.9408C10.341 14.8658 10.0317 14.7721 9.80677 14.8377C9.59119 14.8846 9.35686 15.1189 9.13191 15.3533C8.79447 15.6532 8.45704 15.9906 8.02587 15.9906Z" fill="#149CBC"/>
    <path fill-rule="evenodd" clip-rule="evenodd" d="M7.1761 10.601C7.1386 10.601 7.09174 10.5822 7.05424 10.5728C7.04487 10.5635 7.0355 10.5447 7.00738 10.5353L6.17317 9.71051L5.02027 8.55761C4.70158 8.22955 4.70158 7.71402 5.02027 7.40471C5.33895 7.08602 5.86385 7.08602 6.17317 7.40471L7.1761 8.39826L9.80996 5.73628C9.9693 5.57694 10.1661 5.50195 10.3817 5.50195C10.6067 5.50195 10.8035 5.57694 10.9535 5.73628C11.1128 5.89563 11.2066 6.10184 11.2066 6.31742C11.2066 6.54237 11.1128 6.73921 10.9535 6.88918L7.32607 10.5353C7.31669 10.5447 7.28857 10.5635 7.2792 10.5728C7.25108 10.5822 7.21359 10.601 7.18547 10.601C7.18547 10.601 7.18547 10.601 7.1761 10.601Z" fill="white"/>
  </g>
  <defs>
    <clipPath id="clip0_1433_9592">
      <rect width="16" height="16" fill="white"/>
    </clipPath>
  </defs>
</svg>