<svg xmlns="http://www.w3.org/2000/svg" width="19" height="12" viewBox="0 0 19 12" fill="none">
  <g clip-path="url(#clip0_1419_8018)">
    <path d="M0.0111757 6.59357C0.0336357 6.30598 0.123964 5.91684 0.204527 5.6356C0.440357 4.8119 0.913483 4.07853 1.54578 3.50531L0.0477953 1.84229H3.42852C3.46562 1.84229 3.9368 1.49465 4.04373 1.43411C7.32533 -0.425192 11.1601 -0.487689 14.4852 1.31155C14.6195 1.38431 15.2928 1.84229 15.3431 1.84229H18.6872L17.1892 3.50531C19.466 5.54332 19.1408 9.24922 16.572 10.8927C14.7611 12.0518 12.4408 11.816 10.8516 10.3961L9.35454 11.9996L7.8839 10.3957C6.63298 11.4933 4.98461 11.9078 3.36602 11.4435C1.52967 10.9181 0.149354 9.19698 0.0111757 7.28836C-0.00298385 7.08964 -0.00444864 6.7918 0.0111757 6.59405V6.59357ZM12.8393 2.20849C11.2202 1.55471 9.44194 1.36526 7.7218 1.67726C7.09292 1.79103 6.49285 1.99121 5.89521 2.20849C5.86689 2.24462 6.63054 2.58885 6.69987 2.62791C8.10167 3.41498 9.20758 4.84901 9.34917 6.48468L9.53178 5.68052C10.0342 3.93205 11.2241 3.07027 12.7489 2.28271C12.7831 2.26513 12.8358 2.26073 12.8393 2.20898V2.20849ZM4.53541 3.79046C2.15953 3.90862 0.749915 6.54425 1.97838 8.59153C3.31719 10.8229 6.71647 10.5397 7.64075 8.1018C8.45175 5.96322 6.8234 3.67669 4.53492 3.79046H4.53541ZM13.892 3.79046C11.3633 3.91643 9.99514 6.82158 11.5088 8.85666C12.8637 10.6784 15.7117 10.486 16.8059 8.49534C17.9958 6.32942 16.365 3.6679 13.892 3.79095V3.79046Z" fill="black"/>
    <path d="M13.708 5.32491C15.4687 5.05099 16.4144 7.17737 15.0703 8.25887C14.208 8.9522 12.8701 8.57917 12.4937 7.54552C12.1583 6.62466 12.7115 5.48018 13.708 5.3254V5.32491Z" fill="black"/>
    <path d="M4.38847 5.32526C7.00946 4.96834 6.91864 8.97745 4.39531 8.5888C2.5863 8.31 2.63171 5.5645 4.38847 5.32526Z" fill="black"/>
  </g>
  <defs>
    <clipPath id="clip0_1419_8018">
      <rect width="18.7151" height="12" fill="white"/>
    </clipPath>
  </defs>
</svg>