<svg class="icon-arrow" xmlns="http://www.w3.org/2000/svg" width="16" height="16" viewBox="0 0 16 16" fill="none">
  <g clip-path="url(#clip0_1278_12175)">
    <path d="M8.2002 1.40039C10.8535 1.4005 13 3.54689 13 6.2002C13 7.10904 12.7001 8.07995 12.291 8.99316C11.8784 9.91422 11.3341 10.8224 10.7979 11.6172C10.2604 12.4138 9.72374 13.1079 9.32227 13.6025C9.1213 13.8502 8.95316 14.0484 8.83496 14.1855C8.77609 14.2539 8.72956 14.3072 8.69727 14.3438C8.68111 14.362 8.66786 14.377 8.65918 14.3867C8.65505 14.3913 8.65173 14.3949 8.64941 14.3975L8.64551 14.4014V14.4023C8.53179 14.5282 8.36984 14.5996 8.2002 14.5996C8.03055 14.5996 7.86864 14.5282 7.75488 14.4023L7.75391 14.4014V14.4004L7.74023 14.3867C7.73155 14.377 7.71928 14.362 7.70312 14.3438C7.67085 14.3072 7.62434 14.2539 7.56543 14.1855C7.44726 14.0484 7.27904 13.8501 7.07812 13.6025C6.67668 13.1079 6.13997 12.4137 5.60254 11.6172C5.06622 10.8223 4.52107 9.91429 4.1084 8.99316C3.69928 8.07995 3.40043 7.10904 3.40039 6.2002C3.40039 3.54682 5.54682 1.40039 8.2002 1.40039Z" stroke="currentColor" stroke-width="1.2" stroke-linejoin="round"/>
    <path d="M6.1333 6.5C6.1333 7.604 7.0293 8.5 8.1333 8.5C9.2373 8.5 10.1333 7.604 10.1333 6.5C10.1333 5.396 9.2373 4.5 8.1333 4.5C7.0293 4.5 6.1333 5.396 6.1333 6.5Z" fill="currentColor"/>
  </g>
  <defs>
    <clipPath id="clip0_1278_12175">
      <rect width="16" height="16" fill="white"/>
    </clipPath>
  </defs>
</svg>
