<svg class="icon-svg" width="14" height="14" viewBox="0 0 14 14" fill="none" xmlns="http://www.w3.org/2000/svg">
<mask id="mask0_1473_2363" style="mask-type:alpha" maskUnits="userSpaceOnUse" x="0" y="0" width="14" height="14">
<rect width="14" height="14" fill="#D9D9D9"/>
</mask>
<g mask="url(#mask0_1473_2363)">
<path d="M7.00326 7.00039C7.29288 7.00039 7.53978 6.89729 7.74395 6.69108C7.94811 6.48487 8.0502 6.23695 8.0502 5.94733C8.0502 5.6577 7.94709 5.41081 7.74088 5.20664C7.53467 5.00247 7.28676 4.90039 6.99713 4.90039C6.70751 4.90039 6.46061 5.00349 6.25645 5.2097C6.05228 5.41591 5.9502 5.66383 5.9502 5.95345C5.9502 6.24308 6.0533 6.48997 6.25951 6.69414C6.46572 6.89831 6.71363 7.00039 7.00326 7.00039ZM7.0002 12.6004C5.4741 11.3257 4.33422 10.1418 3.58055 9.04862C2.82698 7.95536 2.4502 6.9372 2.4502 5.99414C2.4502 4.69136 2.88283 3.60004 3.74811 2.72018C4.61339 1.84032 5.69499 1.40039 6.9929 1.40039C8.29082 1.40039 9.37485 1.84032 10.245 2.72018C11.1151 3.60004 11.5502 4.69136 11.5502 5.99414C11.5502 6.9372 11.1759 7.95317 10.4273 9.04206C9.67867 10.1309 8.53631 11.3171 7.0002 12.6004Z" fill="#1C1B1F"/>
</g>
</svg>
