<svg width="8" height="11" viewBox="0 0 8 11" fill="none" xmlns="http://www.w3.org/2000/svg">
<path d="M1 10.75C0.725 10.75 0.489583 10.6521 0.29375 10.4563C0.0979167 10.2604 0 10.025 0 9.75V4.75C0 4.475 0.0979167 4.23958 0.29375 4.04375C0.489583 3.84792 0.725 3.75 1 3.75H1.5V2.75C1.5 2.05833 1.74375 1.46875 2.23125 0.98125C2.71875 0.49375 3.30833 0.25 4 0.25C4.69167 0.25 5.28125 0.49375 5.76875 0.98125C6.25625 1.46875 6.5 2.05833 6.5 2.75V3.75H7C7.275 3.75 7.51042 3.84792 7.70625 4.04375C7.90208 4.23958 8 4.475 8 4.75V9.75C8 10.025 7.90208 10.2604 7.70625 10.4563C7.51042 10.6521 7.275 10.75 7 10.75H1ZM1 9.75H7V4.75H1V9.75ZM4 8.25C4.275 8.25 4.51042 8.15208 4.70625 7.95625C4.90208 7.76042 5 7.525 5 7.25C5 6.975 4.90208 6.73958 4.70625 6.54375C4.51042 6.34792 4.275 6.25 4 6.25C3.725 6.25 3.48958 6.34792 3.29375 6.54375C3.09792 6.73958 3 6.975 3 7.25C3 7.525 3.09792 7.76042 3.29375 7.95625C3.48958 8.15208 3.725 8.25 4 8.25ZM2.5 3.75H5.5V2.75C5.5 2.33333 5.35417 1.97917 5.0625 1.6875C4.77083 1.39583 4.41667 1.25 4 1.25C3.58333 1.25 3.22917 1.39583 2.9375 1.6875C2.64583 1.97917 2.5 2.33333 2.5 2.75V3.75Z" fill="#1C1B1F"/>
</svg>
