<svg class="w-10 h-10 rounded-[6.25rem] border border-[#149CBC] flex p-2 justify-center items-center gap-2 flex-shrink-0" aria-hidden="true" focusable="false"  xmlns="http://www.w3.org/2000/svg" width="33" height="33" viewBox="0 0 33 33" fill="none">
  <mask id="mask0_1182_23915" style="mask-type:alpha" maskUnits="userSpaceOnUse" x="0" y="0" width="33" height="33">
    <rect width="32.9224" height="32.9224" fill="#D9D9D9"/>
  </mask>
  <g mask="url(#mask0_1182_23915)">
    <path d="M14.7948 22.0165H18.1281V18.1276H22.017V14.7943H18.1281V10.9054H14.7948V14.7943H10.9059V18.1276H14.7948V22.0165ZM8.68365 26.4609C8.07254 26.4609 7.54939 26.2433 7.1142 25.8082C6.67902 25.373 6.46143 24.8498 6.46143 24.2387V8.68316C6.46143 8.07205 6.67902 7.5489 7.1142 7.11372C7.54939 6.67853 8.07254 6.46094 8.68365 6.46094H24.2392C24.8503 6.46094 25.3735 6.67853 25.8086 7.11372C26.2438 7.5489 26.4614 8.07205 26.4614 8.68316V24.2387C26.4614 24.8498 26.2438 25.373 25.8086 25.8082C25.3735 26.2433 24.8503 26.4609 24.2392 26.4609H8.68365ZM8.68365 24.2387H24.2392V8.68316H8.68365V24.2387Z" fill="#149CBC"/>
  </g>
</svg>