 <svg class="w-10 h-10 rounded-[6.25rem] border border-[#149CBC] flex p-2 justify-center items-center gap-2 flex-shrink-0" aria-hidden="true" focusable="false" xmlns="http://www.w3.org/2000/svg" width="30" height="30" viewBox="0 0 30 30" fill="none">
  <mask id="mask0_1182_23928" style="mask-type:alpha" maskUnits="userSpaceOnUse" x="0" y="0" width="30" height="30">
    <rect width="30" height="30" fill="#D9D9D9"/>
  </mask>
  <g mask="url(#mask0_1182_23928)">
    <path d="M15 7.5C14.3125 7.5 13.724 7.25521 13.2344 6.76562C12.7448 6.27604 12.5 5.6875 12.5 5C12.5 4.3125 12.7448 3.72396 13.2344 3.23438C13.724 2.74479 14.3125 2.5 15 2.5C15.6875 2.5 16.276 2.74479 16.7656 3.23438C17.2552 3.72396 17.5 4.3125 17.5 5C17.5 5.6875 17.2552 6.27604 16.7656 6.76562C16.276 7.25521 15.6875 7.5 15 7.5ZM21.25 27.5V21.25H15C14.3125 21.25 13.724 21.0052 13.2344 20.5156C12.7448 20.026 12.5 19.4375 12.5 18.75V11.25C12.5 10.5625 12.7448 9.97396 13.2344 9.48438C13.724 8.99479 14.3125 8.75 15 8.75C15.5 8.75 15.9323 8.85938 16.2969 9.07813C16.6615 9.29688 17.0521 9.64583 17.4688 10.125C18.6146 11.5 19.651 12.4427 20.5781 12.9531C21.5052 13.4635 22.5625 13.7292 23.75 13.75V16.25C22.6458 16.25 21.5312 16.0104 20.4062 15.5312C19.2812 15.0521 18.3125 14.4792 17.5 13.8125V18.125H21.25C21.9375 18.125 22.526 18.3698 23.0156 18.8594C23.5052 19.349 23.75 19.9375 23.75 20.625V27.5H21.25ZM12.5 27.5C10.7708 27.5 9.29688 26.8906 8.07812 25.6719C6.85937 24.4531 6.25 22.9792 6.25 21.25C6.25 19.75 6.72396 18.4271 7.67188 17.2812C8.61979 16.1354 9.8125 15.4167 11.25 15.125V17.6875C10.5208 17.9792 9.92188 18.4427 9.45312 19.0781C8.98438 19.7135 8.75 20.4375 8.75 21.25C8.75 22.2917 9.11458 23.1771 9.84375 23.9062C10.5729 24.6354 11.4583 25 12.5 25C13.3125 25 14.0365 24.7656 14.6719 24.2969C15.3073 23.8281 15.7708 23.2292 16.0625 22.5H18.625C18.3333 23.9375 17.6146 25.1302 16.4688 26.0781C15.3229 27.026 14 27.5 12.5 27.5Z" fill="#149CBC"/>
  </g>
</svg>