<svg width="16" height="16" viewBox="0 0 16 16" fill="none" xmlns="http://www.w3.org/2000/svg">
<g clip-path="url(#clip0_1941_127)">
<path d="M8 16C12.4183 16 16 12.4183 16 8C16 3.58172 12.4183 0 8 0C3.58172 0 0 3.58172 0 8C0 12.4183 3.58172 16 8 16Z" fill="#F0F0F0"/>
<path d="M15.9999 7.9998C15.9999 4.82811 14.1541 2.08761 11.4781 0.79361V15.206C14.1541 13.912 15.9999 11.1715 15.9999 7.9998Z" fill="#D80027"/>
<path d="M0 7.99946C0 11.1711 1.84578 13.9116 4.52175 15.2056V0.793274C1.84578 2.08727 0 4.82777 0 7.99946Z" fill="#6DA544"/>
<path d="M5.91309 7.99937C5.91309 9.15196 6.84746 10.0863 8.00005 10.0863C9.15265 10.0863 10.087 9.15196 10.087 7.99937V7.30371H5.91309V7.99937Z" fill="#6DA544"/>
<path d="M10.7824 6.60908H8.69545C8.69545 6.22489 8.38398 5.91342 7.99979 5.91342C7.6156 5.91342 7.30413 6.22489 7.30413 6.60908H5.21716C5.21716 6.99329 5.55182 7.30473 5.93598 7.30473H5.91282C5.91282 7.68895 6.22426 8.00039 6.60848 8.00039C6.60848 8.3846 6.91992 8.69604 7.30413 8.69604H8.69545C9.07967 8.69604 9.3911 8.3846 9.3911 8.00039C9.77532 8.00039 10.0868 7.68895 10.0868 7.30473H10.0636C10.4478 7.30473 10.7824 6.99329 10.7824 6.60908Z" fill="#FF9811"/>
</g>
<defs>
<clipPath id="clip0_1941_127">
<rect width="16" height="16" fill="white"/>
</clipPath>
</defs>
</svg>
