<svg width="26" height="25" viewBox="0 0 26 25" fill="none" xmlns="http://www.w3.org/2000/svg">
<mask id="mask0_1593_9760" style="mask-type:alpha" maskUnits="userSpaceOnUse" x="0" y="0" width="26" height="25">
<rect x="0.470215" width="25" height="25" fill="#D9D9D9"/>
</mask>
<g mask="url(#mask0_1593_9760)">
<path d="M21.2514 16.6145L19.6368 15C20.4007 14.2882 20.9997 13.4461 21.4337 12.4739C21.8677 11.5017 22.0848 10.4687 22.0848 9.37496C22.0848 8.28121 21.8677 7.2569 21.4337 6.30204C20.9997 5.34718 20.4007 4.51385 19.6368 3.80204L21.2514 2.13538C22.2236 3.05551 22.9962 4.14058 23.5691 5.39058C24.142 6.64058 24.4285 7.96871 24.4285 9.37496C24.4285 10.7812 24.142 12.1093 23.5691 13.3593C22.9962 14.6093 22.2236 15.6944 21.2514 16.6145ZM17.9181 13.2812L16.2514 11.6145C16.5639 11.3194 16.8157 10.9852 17.0066 10.6119C17.1976 10.2387 17.2931 9.82635 17.2931 9.37496C17.2931 8.92357 17.1976 8.51124 17.0066 8.13798C16.8157 7.76472 16.5639 7.43051 16.2514 7.13538L17.9181 5.46871C18.4736 5.97218 18.9077 6.55812 19.2202 7.22652C19.5327 7.89492 19.6889 8.61107 19.6889 9.37496C19.6889 10.1388 19.5327 10.855 19.2202 11.5234C18.9077 12.1918 18.4736 12.7777 17.9181 13.2812ZM9.84517 13.5416C8.69934 13.5416 7.71844 13.1336 6.90247 12.3177C6.08649 11.5017 5.67851 10.5208 5.67851 9.37496C5.67851 8.22913 6.08649 7.24822 6.90247 6.43225C7.71844 5.61628 8.69934 5.20829 9.84517 5.20829C10.991 5.20829 11.9719 5.61628 12.7879 6.43225C13.6039 7.24822 14.0118 8.22913 14.0118 9.37496C14.0118 10.5208 13.6039 11.5017 12.7879 12.3177C11.9719 13.1336 10.991 13.5416 9.84517 13.5416ZM1.51184 21.875V18.9583C1.51184 18.3854 1.65941 17.8472 1.95455 17.3437C2.24969 16.8402 2.65767 16.4583 3.17851 16.1979C4.06392 15.7465 5.06219 15.3645 6.1733 15.052C7.28441 14.7395 8.50837 14.5833 9.84517 14.5833C11.182 14.5833 12.4059 14.7395 13.517 15.052C14.6282 15.3645 15.6264 15.7465 16.5118 16.1979C17.0327 16.4583 17.4407 16.8402 17.7358 17.3437C18.0309 17.8472 18.1785 18.3854 18.1785 18.9583V21.875H1.51184ZM3.59517 19.7916H16.0952V18.9583C16.0952 18.7673 16.0474 18.5937 15.9519 18.4375C15.8565 18.2812 15.7306 18.1597 15.5743 18.0729C14.9493 17.7604 14.1464 17.4479 13.1655 17.1354C12.1846 16.8229 11.0778 16.6666 9.84517 16.6666C8.61253 16.6666 7.50576 16.8229 6.52486 17.1354C5.54396 17.4479 4.74101 17.7604 4.11601 18.0729C3.95976 18.1597 3.83389 18.2812 3.7384 18.4375C3.64292 18.5937 3.59517 18.7673 3.59517 18.9583V19.7916ZM9.84517 11.4583C10.4181 11.4583 10.9085 11.2543 11.3165 10.8463C11.7245 10.4383 11.9285 9.94788 11.9285 9.37496C11.9285 8.80204 11.7245 8.31159 11.3165 7.9036C10.9085 7.49562 10.4181 7.29163 9.84517 7.29163C9.27226 7.29163 8.78181 7.49562 8.37382 7.9036C7.96583 8.31159 7.76184 8.80204 7.76184 9.37496C7.76184 9.94788 7.96583 10.4383 8.37382 10.8463C8.78181 11.2543 9.27226 11.4583 9.84517 11.4583Z" fill="currentColor"/>
</g>
</svg>
