<svg class="text-primary bg-icon" width="52" height="52" viewBox="0 0 52 52" fill="none" xmlns="http://www.w3.org/2000/svg">
<rect x="1" y="1" width="50" height="50" rx="7" fill="white" class="icon-bg-rect"/>
<rect x="1" y="1" width="50" height="50" rx="7" stroke="#FB8500" stroke-width="2"/>
<path d="M39.94 37.5116H37.7922L34.6681 31.2605C34.0126 29.9488 32.7015 29.1395 31.2371 29.1395H25.7001C24.8075 29.1395 24.0683 28.4698 23.9707 27.5907L23.5941 24.2558H28.7824C29.3543 24.2558 29.8285 23.7814 29.8285 23.2093C29.8285 22.6372 29.3543 22.1628 28.7824 22.1628H23.371L22.9665 18.4791C24.5146 17.9907 25.6583 16.5535 25.6583 14.8372C25.6583 12.7163 23.9428 11 21.8229 11C19.7029 11 17.9875 12.7163 17.9875 14.8372C17.9875 16.6233 19.2148 18.1163 20.8745 18.5349L21.9066 27.814C22.1297 29.7535 23.7615 31.2326 25.7141 31.2326H31.251C31.9205 31.2326 32.5063 31.5953 32.8131 32.1953L36.2301 39.0186C36.4114 39.3674 36.7741 39.5907 37.1646 39.5907H39.954C40.5258 39.5907 41 39.1163 41 38.5442C41 37.9721 40.5258 37.4977 39.954 37.4977L39.94 37.5116ZM21.8089 16.5814C20.8466 16.5814 20.0655 15.8 20.0655 14.8372C20.0655 13.8744 20.8466 13.093 21.8089 13.093C22.7713 13.093 23.5523 13.8744 23.5523 14.8372C23.5523 15.8 22.7713 16.5814 21.8089 16.5814ZM27.5969 32.9767H29.7169C29.0335 37.5116 25.1283 41 20.4142 41C15.2259 41 11 36.7721 11 31.5814C11 26.6977 14.7378 22.6651 19.5077 22.2046L19.7448 24.3256C16.0209 24.6744 13.0921 27.7721 13.0921 31.5814C13.0921 35.6279 16.3696 38.907 20.4142 38.907C23.9707 38.907 26.9414 36.3535 27.5969 32.9767Z" fill="#FB8500"/>
</svg>