<svg class="text-primary bg-icon" width="52" height="52" viewBox="0 0 52 52" fill="none" xmlns="http://www.w3.org/2000/svg">
<rect x="1" y="1" width="50" height="50" rx="7" fill="white"  class="icon-bg-rect"/>
<rect x="1" y="1" width="50" height="50" rx="7" stroke="#FB8500" stroke-width="2"/>
<path d="M24.6183 18.6673C26.704 18.6673 28.3917 16.9526 28.3917 14.8336C28.3917 12.7147 26.704 11 24.6183 11C22.5327 11 20.8449 12.7147 20.8449 14.8336C20.8449 16.9526 22.5327 18.6673 24.6183 18.6673ZM24.6183 13.0911C25.5651 13.0911 26.3335 13.8717 26.3335 14.8336C26.3335 15.7955 25.5651 16.5762 24.6183 16.5762C23.6716 16.5762 22.9032 15.7955 22.9032 14.8336C22.9032 13.8717 23.6716 13.0911 24.6183 13.0911ZM37.9556 39.6059L33.8392 27.0595C33.7294 26.7528 33.4961 26.5019 33.1943 26.4043L29.4071 25.1217L26.8549 21.2323C26.7177 21.0093 26.4982 20.8559 26.2512 20.8002L20.7626 19.4061C20.4058 19.3225 20.0354 19.4201 19.7884 19.6849L15.6719 23.8671C15.5622 23.9786 15.4798 24.118 15.4249 24.2714L14.0528 28.4535C13.8744 28.9972 14.1626 29.5967 14.6977 29.7779C15.2328 29.9591 15.8229 29.6664 16.0012 29.1227L17.2911 25.1775L19.4728 22.961V34.1273L16.8383 39.4805C16.5775 39.9963 16.7834 40.6236 17.3048 40.8885C17.4557 40.9582 17.6067 41 17.7576 41C18.1281 41 18.4986 40.7909 18.6769 40.4284L21.4212 34.8522C21.4898 34.7128 21.531 34.5455 21.531 34.3783V31.2416H25.4416L27.7057 34.6989V39.9545C27.7057 40.526 28.1722 41 28.7348 41C29.2974 41 29.7639 40.526 29.7639 39.9545V34.3783C29.7639 34.1691 29.709 33.974 29.5855 33.7928L27.0196 29.8755V25.2751L27.884 26.5855C28.0075 26.7807 28.1996 26.9201 28.4192 27.0037L32.0417 28.2305L35.9934 40.2751C36.1444 40.7072 36.5423 40.9861 36.9677 40.9861C37.0774 40.9861 37.1872 40.9721 37.297 40.9303C37.8321 40.7491 38.134 40.1496 37.9419 39.6059H37.9556ZM24.9614 29.1227H21.531V21.7481L24.9614 22.6125V29.1087V29.1227Z" fill="#FB8500"/>
</svg>
