<svg xmlns="http://www.w3.org/2000/svg" width="40" height="40" viewBox="0 0 40 40" fill="none">
  <mask id="mask0_1541_9495" style="mask-type:alpha" maskUnits="userSpaceOnUse" x="0" y="0" width="40" height="40">
    <rect width="40" height="40" fill="#D9D9D9"/>
  </mask>
  <g mask="url(#mask0_1541_9495)">
    <path d="M13.334 30C12.8618 30 12.4659 29.8403 12.1465 29.5208C11.827 29.2014 11.6673 28.8056 11.6673 28.3333C11.6673 27.8611 11.827 27.4653 12.1465 27.1458C12.4659 26.8264 12.8618 26.6667 13.334 26.6667C13.8062 26.6667 14.202 26.8264 14.5215 27.1458C14.8409 27.4653 15.0007 27.8611 15.0007 28.3333C15.0007 28.8056 14.8409 29.2014 14.5215 29.5208C14.202 29.8403 13.8062 30 13.334 30ZM20.0007 30C19.5284 30 19.1326 29.8403 18.8132 29.5208C18.4937 29.2014 18.334 28.8056 18.334 28.3333C18.334 27.8611 18.4937 27.4653 18.8132 27.1458C19.1326 26.8264 19.5284 26.6667 20.0007 26.6667C20.4729 26.6667 20.8687 26.8264 21.1882 27.1458C21.5076 27.4653 21.6673 27.8611 21.6673 28.3333C21.6673 28.8056 21.5076 29.2014 21.1882 29.5208C20.8687 29.8403 20.4729 30 20.0007 30ZM26.6673 30C26.1951 30 25.7993 29.8403 25.4798 29.5208C25.1604 29.2014 25.0007 28.8056 25.0007 28.3333C25.0007 27.8611 25.1604 27.4653 25.4798 27.1458C25.7993 26.8264 26.1951 26.6667 26.6673 26.6667C27.1395 26.6667 27.5354 26.8264 27.8548 27.1458C28.1743 27.4653 28.334 27.8611 28.334 28.3333C28.334 28.8056 28.1743 29.2014 27.8548 29.5208C27.5354 29.8403 27.1395 30 26.6673 30ZM8.33398 23.3333V20C8.33398 17.0556 9.27843 14.5 11.1673 12.3333C13.0562 10.1667 15.4451 8.88889 18.334 8.5V5H21.6673V8.5C24.5562 8.88889 26.9451 10.1667 28.834 12.3333C30.7229 14.5 31.6673 17.0556 31.6673 20V23.3333H8.33398ZM11.6673 20H28.334C28.334 17.6944 27.5215 15.7292 25.8965 14.1042C24.2715 12.4792 22.3062 11.6667 20.0007 11.6667C17.6951 11.6667 15.7298 12.4792 14.1048 14.1042C12.4798 15.7292 11.6673 17.6944 11.6673 20ZM13.334 35C12.8618 35 12.4659 34.8403 12.1465 34.5208C11.827 34.2014 11.6673 33.8056 11.6673 33.3333C11.6673 32.8611 11.827 32.4653 12.1465 32.1458C12.4659 31.8264 12.8618 31.6667 13.334 31.6667C13.8062 31.6667 14.202 31.8264 14.5215 32.1458C14.8409 32.4653 15.0007 32.8611 15.0007 33.3333C15.0007 33.8056 14.8409 34.2014 14.5215 34.5208C14.202 34.8403 13.8062 35 13.334 35ZM20.0007 35C19.5284 35 19.1326 34.8403 18.8132 34.5208C18.4937 34.2014 18.334 33.8056 18.334 33.3333C18.334 32.8611 18.4937 32.4653 18.8132 32.1458C19.1326 31.8264 19.5284 31.6667 20.0007 31.6667C20.4729 31.6667 20.8687 31.8264 21.1882 32.1458C21.5076 32.4653 21.6673 32.8611 21.6673 33.3333C21.6673 33.8056 21.5076 34.2014 21.1882 34.5208C20.8687 34.8403 20.4729 35 20.0007 35ZM26.6673 35C26.1951 35 25.7993 34.8403 25.4798 34.5208C25.1604 34.2014 25.0007 33.8056 25.0007 33.3333C25.0007 32.8611 25.1604 32.4653 25.4798 32.1458C25.7993 31.8264 26.1951 31.6667 26.6673 31.6667C27.1395 31.6667 27.5354 31.8264 27.8548 32.1458C28.1743 32.4653 28.334 32.8611 28.334 33.3333C28.334 33.8056 28.1743 34.2014 27.8548 34.5208C27.5354 34.8403 27.1395 35 26.6673 35Z" fill="#1C1B1F"/>
  </g>
</svg>