<svg width="117" height="20" viewBox="0 0 117 20" fill="none" xmlns="http://www.w3.org/2000/svg">
<path d="M111.808 19.1728C111.567 19.1728 111.327 19.0997 111.121 18.9541L106.269 15.5153L101.417 18.9541C101.216 19.097 100.974 19.1735 100.726 19.1727C100.479 19.1718 100.238 19.0937 100.038 18.9494C99.8374 18.8059 99.6881 18.6037 99.6109 18.3715C99.5337 18.1393 99.5325 17.889 99.6076 17.6561L101.417 11.8843L96.6086 8.53565C96.4093 8.3903 96.2613 8.18672 96.1855 7.95369C96.1098 7.72065 96.11 7.46997 96.1863 7.2371C96.2632 7.0048 96.412 6.80225 96.6118 6.65808C96.8115 6.51391 97.052 6.43542 97.2993 6.43369L103.255 6.42485L105.151 0.796245C105.229 0.564372 105.379 0.362705 105.58 0.219801C105.781 0.0768969 106.022 0 106.269 0C106.516 0 106.757 0.0768969 106.958 0.219801C107.159 0.362705 107.309 0.564372 107.387 0.796245L109.251 6.42485L115.237 6.43369C115.485 6.43507 115.726 6.51353 115.925 6.65791C116.125 6.8023 116.274 7.00527 116.351 7.23799C116.427 7.47071 116.428 7.72135 116.352 7.9543C116.276 8.18725 116.128 8.39067 115.928 8.53565L111.12 11.8843L112.929 17.6561C113.005 17.8889 113.004 18.1392 112.926 18.3714C112.849 18.6036 112.7 18.8059 112.5 18.9494C112.299 19.0948 112.057 19.1731 111.808 19.1728Z" fill="#FB8500"/>
<path d="M87.5229 19.1728C87.2819 19.1728 87.0421 19.0997 86.8358 18.9541L81.9836 15.5153L77.1315 18.9541C76.9304 19.097 76.6888 19.1735 76.4412 19.1727C76.1935 19.1718 75.9525 19.0937 75.7525 18.9494C75.5523 18.8059 75.4029 18.6037 75.3257 18.3715C75.2485 18.1393 75.2474 17.889 75.3224 17.6561L77.1321 11.8843L72.3235 8.53565C72.1242 8.3903 71.9762 8.18672 71.9004 7.95369C71.8246 7.72065 71.8249 7.46997 71.9012 7.2371C71.9781 7.0048 72.1269 6.80225 72.3266 6.65808C72.5263 6.51391 72.7668 6.43542 73.0141 6.43369L78.9697 6.42485L80.8659 0.796245C80.9441 0.564372 81.0942 0.362705 81.2949 0.219801C81.4955 0.0768969 81.7366 0 81.9839 0C82.2312 0 82.4723 0.0768969 82.673 0.219801C82.8736 0.362705 83.0237 0.564372 83.102 0.796245L84.9659 6.42485L90.9519 6.43369C91.1995 6.43507 91.4404 6.51353 91.6403 6.65791C91.8402 6.8023 91.989 7.00527 92.0655 7.23799C92.1421 7.47071 92.1425 7.72135 92.0666 7.9543C91.9908 8.18725 91.8426 8.39067 91.6432 8.53565L86.8346 11.8843L88.6442 17.6561C88.7194 17.8889 88.7184 18.1392 88.6413 18.3714C88.5642 18.6036 88.4149 18.8059 88.2148 18.9494C88.0141 19.0948 87.7717 19.1731 87.5229 19.1728Z" fill="#FB8500"/>
<path d="M63.2377 19.1728C62.9968 19.1728 62.757 19.0997 62.5506 18.9541L57.6985 15.5153L52.8463 18.9541C52.6453 19.097 52.4037 19.1735 52.156 19.1727C51.9084 19.1718 51.6673 19.0937 51.4673 18.9494C51.2671 18.8059 51.1178 18.6037 51.0406 18.3715C50.9633 18.1393 50.9622 17.889 51.0373 17.6561L52.8469 11.8843L48.0383 8.53565C47.839 8.3903 47.691 8.18672 47.6152 7.95369C47.5394 7.72065 47.5397 7.46997 47.616 7.2371C47.6929 7.0048 47.8417 6.80225 48.0414 6.65808C48.2412 6.51391 48.4817 6.43542 48.729 6.43369L54.6846 6.42485L56.5807 0.796245C56.659 0.564372 56.809 0.362705 57.0097 0.219801C57.2104 0.0768969 57.4514 0 57.6988 0C57.9461 0 58.1872 0.0768969 58.3878 0.219801C58.5885 0.362705 58.7386 0.564372 58.8168 0.796245L60.6807 6.42485L66.6667 6.43369C66.9143 6.43507 67.1552 6.51353 67.3551 6.65791C67.5551 6.8023 67.7038 7.00527 67.7804 7.23799C67.8569 7.47071 67.8573 7.72135 67.7815 7.9543C67.7057 8.18725 67.5575 8.39067 67.358 8.53565L62.5494 11.8843L64.3591 17.6561C64.4343 17.8889 64.4333 18.1392 64.3562 18.3714C64.2791 18.6036 64.1298 18.8059 63.9296 18.9494C63.729 19.0948 63.4865 19.1731 63.2377 19.1728Z" fill="#FB8500"/>
<path d="M39.9643 19.1728C39.7233 19.1728 39.4835 19.0997 39.2772 18.9541L34.425 15.5153L29.5729 18.9541C29.3718 19.097 29.1302 19.1735 28.8826 19.1727C28.6349 19.1718 28.3939 19.0937 28.1939 18.9494C27.9937 18.8059 27.8443 18.6037 27.7671 18.3715C27.6899 18.1393 27.6888 17.889 27.7638 17.6561L29.5735 11.8843L24.7649 8.53565C24.5656 8.3903 24.4176 8.18672 24.3418 7.95369C24.266 7.72065 24.2663 7.46997 24.3426 7.2371C24.4195 7.0048 24.5683 6.80225 24.768 6.65808C24.9677 6.51391 25.2082 6.43542 25.4556 6.43369L31.4111 6.42485L33.3073 0.796245C33.3855 0.564372 33.5356 0.362705 33.7363 0.219801C33.9369 0.0768969 34.178 0 34.4253 0C34.6727 0 34.9137 0.0768969 35.1144 0.219801C35.315 0.362705 35.4651 0.564372 35.5434 0.796245L37.4073 6.42485L43.3933 6.43369C43.6409 6.43507 43.8818 6.51353 44.0817 6.65791C44.2816 6.8023 44.4304 7.00527 44.507 7.23799C44.5835 7.47071 44.5839 7.72135 44.5081 7.9543C44.4322 8.18725 44.2841 8.39067 44.0846 8.53565L39.276 11.8843L41.0856 17.6561C41.1608 17.8889 41.1598 18.1392 41.0827 18.3714C41.0056 18.6036 40.8563 18.8059 40.6562 18.9494C40.4555 19.0948 40.2131 19.1731 39.9643 19.1728Z" fill="#FB8500"/>
<path d="M15.4948 19.1728C15.2567 19.1728 15.0198 19.0997 14.8158 18.9541L10.0207 15.5153L5.22557 18.9541C5.0269 19.097 4.78815 19.1735 4.54341 19.1727C4.29867 19.1718 4.06045 19.0937 3.86278 18.9494C3.66492 18.8059 3.51734 18.6037 3.44104 18.3715C3.36474 18.1393 3.3636 17.889 3.43779 17.6561L5.22616 11.8843L0.474069 8.53565C0.277125 8.3903 0.130863 8.18672 0.0559716 7.95369C-0.0189199 7.72065 -0.0186499 7.46997 0.0567434 7.2371C0.132731 7.0048 0.279804 6.80225 0.477175 6.65808C0.674546 6.51391 0.912233 6.43542 1.15664 6.43369L7.04223 6.42485L8.91607 0.796245C8.9934 0.564372 9.14172 0.362705 9.34002 0.219801C9.53832 0.0768969 9.77656 0 10.021 0C10.2654 0 10.5036 0.0768969 10.7019 0.219801C10.9002 0.362705 11.0486 0.564372 11.1259 0.796245L12.9679 6.42485L18.8836 6.43369C19.1283 6.43507 19.3663 6.51353 19.5639 6.65791C19.7614 6.8023 19.9085 7.00527 19.9841 7.23799C20.0598 7.47071 20.0601 7.72135 19.9852 7.9543C19.9103 8.18725 19.7638 8.39067 19.5667 8.53565L14.8146 11.8843L16.603 17.6561C16.6773 17.8889 16.6763 18.1392 16.6001 18.3714C16.5239 18.6036 16.3764 18.8059 16.1786 18.9494C15.9803 19.0948 15.7407 19.1731 15.4948 19.1728Z" fill="#FB8500"/>
</svg>
