<svg width="55" height="54" viewBox="0 0 55 54" fill="none" xmlns="http://www.w3.org/2000/svg">
<mask id="mask0_1605_68484" style="mask-type:alpha" maskUnits="userSpaceOnUse" x="0" y="0" width="55" height="54">
<rect x="0.75" width="54" height="54" fill="#D9D9D9"/>
</mask>
<g mask="url(#mask0_1605_68484)">
<path d="M17.4 49.5L14.25 46.35L29.775 30.7688L37.65 38.6438L49.2938 27L52.5 30.2063L37.65 45L29.775 37.125L17.4 49.5ZM9.75 47.25C8.5125 47.25 7.45312 46.8094 6.57188 45.9281C5.69063 45.0469 5.25 43.9875 5.25 42.75V11.25C5.25 10.0125 5.69063 8.95312 6.57188 8.07188C7.45312 7.19063 8.5125 6.75 9.75 6.75H41.25C42.4875 6.75 43.5469 7.19063 44.4281 8.07188C45.3094 8.95312 45.75 10.0125 45.75 11.25V20.7H9.75V47.25ZM9.75 16.2H41.25V11.25H9.75V16.2Z" fill="#FB8500"/>
</g>
</svg>
