 <svg class="w-10 h-10 rounded-[6.25rem] border border-[#149CBC] flex p-2 justify-center items-center gap-2 flex-shrink-0" aria-hidden="true" focusable="false" xmlns="http://www.w3.org/2000/svg" viewBox="0 0 27 27" fill="none">
  <mask id="mask0_1182_23899" style="mask-type:alpha" maskUnits="userSpaceOnUse" x="0" y="0" width="27" height="27">
    <rect width="27" height="27" fill="#D9D9D9"/>
  </mask>
  <g mask="url(#mask0_1182_23899)">
    <path d="M6.75 21.375C5.8125 21.375 5.01562 21.0469 4.35938 20.3906C3.70312 19.7344 3.375 18.9375 3.375 18H1.125V7.875C1.125 7.25625 1.34531 6.72656 1.78594 6.28594C2.22656 5.84531 2.75625 5.625 3.375 5.625H19.125L25.875 12.375V18H23.625C23.625 18.9375 23.2969 19.7344 22.6406 20.3906C21.9844 21.0469 21.1875 21.375 20.25 21.375C19.3125 21.375 18.5156 21.0469 17.8594 20.3906C17.2031 19.7344 16.875 18.9375 16.875 18H10.125C10.125 18.9375 9.79688 19.7344 9.14062 20.3906C8.48438 21.0469 7.6875 21.375 6.75 21.375ZM16.875 11.25H21.375L18 7.875H16.875V11.25ZM10.125 11.25H14.625V7.875H10.125V11.25ZM3.375 11.25H7.875V7.875H3.375V11.25ZM6.75 19.4062C7.14375 19.4062 7.47656 19.2703 7.74844 18.9984C8.02031 18.7266 8.15625 18.3938 8.15625 18C8.15625 17.6062 8.02031 17.2734 7.74844 17.0016C7.47656 16.7297 7.14375 16.5938 6.75 16.5938C6.35625 16.5938 6.02344 16.7297 5.75156 17.0016C5.47969 17.2734 5.34375 17.6062 5.34375 18C5.34375 18.3938 5.47969 18.7266 5.75156 18.9984C6.02344 19.2703 6.35625 19.4062 6.75 19.4062ZM20.25 19.4062C20.6437 19.4062 20.9766 19.2703 21.2484 18.9984C21.5203 18.7266 21.6562 18.3938 21.6562 18C21.6562 17.6062 21.5203 17.2734 21.2484 17.0016C20.9766 16.7297 20.6437 16.5938 20.25 16.5938C19.8563 16.5938 19.5234 16.7297 19.2516 17.0016C18.9797 17.2734 18.8438 17.6062 18.8438 18C18.8438 18.3938 18.9797 18.7266 19.2516 18.9984C19.5234 19.2703 19.8563 19.4062 20.25 19.4062ZM3.375 15.75H4.275C4.59375 15.4125 4.95938 15.1406 5.37188 14.9344C5.78438 14.7281 6.24375 14.625 6.75 14.625C7.25625 14.625 7.71562 14.7281 8.12812 14.9344C8.54063 15.1406 8.90625 15.4125 9.225 15.75H17.775C18.0938 15.4125 18.4594 15.1406 18.8719 14.9344C19.2844 14.7281 19.7437 14.625 20.25 14.625C20.7563 14.625 21.2156 14.7281 21.6281 14.9344C22.0406 15.1406 22.4062 15.4125 22.725 15.75H23.625V13.5H3.375V15.75Z" fill="#149CBC"/>
  </g>
</svg>