<svg xmlns="http://www.w3.org/2000/svg" class="w-20 h-20" viewBox="0 0 80 80" fill="none">
  <mask id="mask0_1277_7518" style="mask-type:alpha" maskUnits="userSpaceOnUse" x="0" y="0" width="80" height="80">
    <rect width="79.7578" height="79.7578" fill="#D9D9D9"/>
  </mask>
  <g mask="url(#mask0_1277_7518)">
    <path d="M51.1979 35.9173C52.4075 35.9173 53.433 35.4938 54.2744 34.647C55.1157 33.8006 55.5364 32.7729 55.5364 31.5638C55.5364 30.3547 55.1132 29.3295 54.2669 28.4882C53.4206 27.6463 52.3926 27.2253 51.1829 27.2253C49.9738 27.2253 48.9486 27.6488 48.1073 28.4956C47.2659 29.3419 46.8453 30.3697 46.8453 31.5788C46.8453 32.7879 47.2684 33.8131 48.1147 34.6544C48.9611 35.4963 49.9888 35.9173 51.1979 35.9173ZM28.5749 35.9173C29.784 35.9173 30.8092 35.4938 31.6506 34.647C32.4919 33.8006 32.9126 32.7729 32.9126 31.5638C32.9126 30.3547 32.4894 29.3295 31.6431 28.4882C30.7968 27.6463 29.7691 27.2253 28.5599 27.2253C27.3503 27.2253 26.3248 27.6488 25.4835 28.4956C24.6421 29.3419 24.2215 30.3697 24.2215 31.5788C24.2215 32.7879 24.6446 33.8131 25.4909 34.6544C26.3372 35.4963 27.3652 35.9173 28.5749 35.9173ZM39.8789 44.8643C36.4111 44.8643 33.2413 45.8346 30.3694 47.7754C27.4976 49.7162 25.3802 52.282 24.0171 55.4729H28.4137C29.6322 53.4235 31.2523 51.8035 33.274 50.6126C35.2956 49.4218 37.4972 48.8264 39.8789 48.8264C42.2606 48.8264 44.4622 49.4218 46.4839 50.6126C48.5055 51.8035 50.1256 53.4235 51.3441 55.4729H55.7407C54.3777 52.282 52.2602 49.7162 49.3884 47.7754C46.5165 45.8346 43.3467 44.8643 39.8789 44.8643ZM39.8847 71.4502C35.518 71.4502 31.4135 70.6216 27.5713 68.9644C23.7291 67.3072 20.387 65.0582 17.5451 62.2174C14.7031 59.3766 12.453 56.0359 10.7947 52.1953C9.13698 48.3548 8.30811 44.2514 8.30811 39.8852C8.30811 35.5185 9.1367 31.414 10.7939 27.5718C12.4511 23.7295 14.7001 20.3875 17.5409 17.5455C20.3817 14.7036 23.7224 12.4535 27.563 10.7952C31.4035 9.13747 35.5069 8.30859 39.8731 8.30859C44.2398 8.30859 48.3443 9.13719 52.1865 10.7944C56.0288 12.4516 59.3708 14.7006 62.2128 17.5414C65.0547 20.3822 67.3048 23.7229 68.9631 27.5635C70.6208 31.404 71.4497 35.5074 71.4497 39.8736C71.4497 44.2403 70.6211 48.3448 68.9639 52.187C67.3067 56.0292 65.0577 59.3713 62.2169 62.2132C59.3761 65.0552 56.0354 67.3053 52.1948 68.9636C48.3543 70.6213 44.2509 71.4502 39.8847 71.4502ZM39.8789 66.4653C47.3008 66.4653 53.5873 63.8898 58.7383 58.7388C63.8893 53.5878 66.4648 47.3013 66.4648 39.8794C66.4648 32.4575 63.8893 26.171 58.7383 21.02C53.5873 15.869 47.3008 13.2935 39.8789 13.2935C32.457 13.2935 26.1705 15.869 21.0195 21.02C15.8685 26.171 13.293 32.4575 13.293 39.8794C13.293 47.3013 15.8685 53.5878 21.0195 58.7388C26.1705 63.8898 32.457 66.4653 39.8789 66.4653Z" fill="#DADADA"/>
  </g>
</svg>