<svg class="icon-svg" xmlns="http://www.w3.org/2000/svg" width="14" height="16" viewBox="0 0 14 16" fill="none">
                    <path d="M6.16 13.0926L11.12 8.5L9.62 7.11111L6.16 10.3148L4.42 8.7037L2.92 10.0926L6.16 13.0926ZM2.12 16C1.53333 16 1.03333 15.8086 0.62 15.4259C0.206667 15.0432 0 14.5802 0 14.037V1.96296C0 1.41975 0.206667 0.95679 0.62 0.574074C1.03333 0.191358 1.53333 0 2.12 0H8.36L14 5.2037V14.037C14 14.5802 13.7933 15.0432 13.38 15.4259C12.9667 15.8086 12.4667 16 11.88 16H2.12ZM7.32 6.18519H11.88L7.32 1.96296V6.18519Z" fill="#1C1B1F"/>
                    </svg>