<svg class="text-primary bg-icon" width="52" height="52" viewBox="0 0 52 52" fill="none" xmlns="http://www.w3.org/2000/svg">
<rect x="1" y="1" width="50" height="50" rx="7" fill="white"  class="icon-bg-rect"/>
<rect x="1" y="1" width="50" height="50" rx="7" stroke="#FB8500" stroke-width="2"/>
<path d="M13.6727 12.2833C13.2952 11.9056 12.6704 11.9056 12.2929 12.2833C11.9154 12.661 11.9154 13.2862 12.2929 13.6639L17.656 19.0301C15.6123 20.6322 13.7508 22.7813 12.1367 25.5034C11.9544 25.816 11.9544 26.1937 12.1367 26.4933C15.1437 31.586 18.9967 34.7901 23.2794 35.78C24.1776 35.9884 25.0888 36.0926 26 36.0926C28.291 36.0926 30.569 35.4023 32.7169 34.0998L38.3273 39.7135C38.5225 39.9088 38.7699 40 39.0172 40C39.2645 40 39.5119 39.9088 39.7071 39.7135C40.0846 39.3357 40.0846 38.7105 39.7071 38.3328L13.6727 12.2833ZM23.3705 24.735L27.2627 28.6294C26.8722 28.8117 26.4556 28.9289 26.013 28.9289C24.3989 28.9289 23.0842 27.6134 23.0842 25.9984C23.0842 25.5555 23.1883 25.1387 23.3835 24.748L23.3705 24.735ZM23.722 33.8784C20.1162 33.0448 16.8099 30.3226 14.1283 25.9984C15.5862 23.6409 17.2394 21.7914 19.0488 20.4238L21.9386 23.3153C21.4179 24.1098 21.1186 25.0345 21.1186 25.9984C21.1186 28.6945 23.3054 30.8827 26 30.8827C26.9633 30.8827 27.9005 30.5961 28.6946 30.0751L31.311 32.6931C28.8638 34.0477 26.2603 34.4645 23.722 33.8784ZM22.2771 18.5873L20.7671 17.0764C22.4463 16.3079 24.2036 15.9042 26 15.9042C31.272 15.9042 36.1925 19.3167 39.8633 25.5034C40.0456 25.816 40.0456 26.1937 39.8633 26.4933C38.5876 28.6554 37.1557 30.4659 35.6067 31.9246L34.2139 30.531C35.5286 29.3067 36.7652 27.8088 37.8717 25.9984C37.6374 25.6207 37.377 25.269 37.1297 24.9173L32.8601 29.1894L31.4802 27.8088L35.9451 23.3413C35.4765 22.7682 34.9949 22.2472 34.5002 21.7653L29.9702 26.2979L28.5904 24.9173L33.0293 20.4759C32.4305 20.02 31.8317 19.6162 31.2069 19.2776L27.0804 23.4064L25.7006 22.0258L29.3064 18.418C28.4733 18.1444 27.6272 17.9881 26.768 17.923L24.1906 20.5019L22.8108 19.1213L23.8131 18.1184C23.2924 18.2356 22.7848 18.3919 22.2771 18.5743V18.5873Z" fill="#FB8500"/>
</svg>
