<svg xmlns="http://www.w3.org/2000/svg" width="36" height="36" viewBox="0 0 36 36" fill="none">
  <mask id="mask0_1541_9502" style="mask-type:alpha" maskUnits="userSpaceOnUse" x="0" y="0" width="36" height="36">
    <rect width="36" height="36" fill="#D9D9D9"/>
  </mask>
  <g mask="url(#mask0_1541_9502)">
    <path d="M4.5 7.5V4.5H9V7.5H4.5ZM9.1875 15.4875L7.05 13.3875L10.2375 10.2L12.375 12.3L9.1875 15.4875ZM18 12C15.925 12 14.1562 11.2688 12.6938 9.80625C11.2312 8.34375 10.5 6.575 10.5 4.5H13.5C13.5 5.75 13.9375 6.8125 14.8125 7.6875C15.6875 8.5625 16.75 9 18 9C19.25 9 20.3125 8.5625 21.1875 7.6875C22.0625 6.8125 22.5 5.75 22.5 4.5H25.5C25.5 6.575 24.7688 8.34375 23.3063 9.80625C21.8438 11.2688 20.075 12 18 12ZM16.5 18V13.5H19.5V18H16.5ZM26.8125 15.4875L23.6625 12.3L25.7625 10.2L28.95 13.35L26.8125 15.4875ZM27 7.5V4.5H31.5V7.5H27ZM3 31.5V28.5C3.95 28.5 4.65625 28.25 5.11875 27.75C5.58125 27.25 6.55 27 8.025 27C9.5 27 10.4688 27.25 10.9312 27.75C11.3938 28.25 12.075 28.5 12.975 28.5C13.925 28.5 14.6313 28.25 15.0938 27.75C15.5562 27.25 16.525 27 18 27C19.425 27 20.3937 27.25 20.9062 27.75C21.4188 28.25 22.125 28.5 23.025 28.5C23.975 28.5 24.6688 28.25 25.1063 27.75C25.5438 27.25 26.5 27 27.975 27C29.45 27 30.4187 27.25 30.8812 27.75C31.3438 28.25 32.05 28.5 33 28.5V31.5C31.575 31.5 30.6063 31.25 30.0938 30.75C29.5812 30.25 28.875 30 27.975 30C27.075 30 26.3938 30.25 25.9313 30.75C25.4688 31.25 24.5 31.5 23.025 31.5C21.6 31.5 20.6313 31.25 20.1188 30.75C19.6063 30.25 18.9 30 18 30C17.05 30 16.3438 30.25 15.8813 30.75C15.4188 31.25 14.45 31.5 12.975 31.5C11.5 31.5 10.5438 31.25 10.1063 30.75C9.66875 30.25 8.975 30 8.025 30C7.075 30 6.36875 30.25 5.90625 30.75C5.44375 31.25 4.475 31.5 3 31.5ZM3 25.5V22.5C3.95 22.5 4.65625 22.25 5.11875 21.75C5.58125 21.25 6.55 21 8.025 21C9.45 21 10.4063 21.25 10.8938 21.75C11.3813 22.25 12.075 22.5 12.975 22.5C13.925 22.5 14.6313 22.25 15.0938 21.75C15.5562 21.25 16.525 21 18 21C19.425 21 20.3875 21.25 20.8875 21.75C21.3875 22.25 22.075 22.5 22.95 22.5C23.9 22.5 24.6063 22.25 25.0688 21.75C25.5312 21.25 26.5 21 27.975 21C29.4 21 30.3687 21.25 30.8812 21.75C31.3937 22.25 32.1 22.5 33 22.5V25.5C31.525 25.5 30.5438 25.25 30.0563 24.75C29.5688 24.25 28.875 24 27.975 24C27.075 24 26.3938 24.25 25.9313 24.75C25.4688 25.25 24.5 25.5 23.025 25.5C21.6 25.5 20.6313 25.25 20.1188 24.75C19.6063 24.25 18.9 24 18 24C17.05 24 16.3563 24.25 15.9188 24.75C15.4812 25.25 14.525 25.5 13.05 25.5C11.575 25.5 10.5938 25.25 10.1063 24.75C9.61875 24.25 8.925 24 8.025 24C7.125 24 6.41875 24.25 5.90625 24.75C5.39375 25.25 4.425 25.5 3 25.5Z" fill="#1C1B1F"/>
  </g>
</svg>