<svg width="20" height="21" viewBox="0 0 20 21" fill="none" xmlns="http://www.w3.org/2000/svg">
<path d="M10 0.168945C15.4676 0.168946 19.9004 4.60172 19.9004 10.0693C19.9004 15.5369 15.4676 19.9697 10 19.9697C8.25386 19.9697 6.61121 19.5165 5.18555 18.7217L4.88184 18.5449L4.84473 18.5234L4.80371 18.5361L1.77148 19.4277C1.1154 19.6207 0.502567 19.051 0.617188 18.4014L0.642578 18.292L1.5332 15.2656L1.5459 15.2236L1.52344 15.1855C0.620142 13.6918 0.0996096 11.9401 0.0996094 10.0693C0.0996094 4.60171 4.53238 0.168945 10 0.168945ZM10 1.96973C5.52649 1.96973 1.90039 5.59583 1.90039 10.0693C1.90039 11.6656 2.36077 13.1514 3.15625 14.4043C3.3408 14.695 3.42026 15.0519 3.35938 15.4053L3.32227 15.5625L2.88086 17.0645L2.8291 17.2402L3.00488 17.1885L4.50684 16.7471C4.91019 16.6285 5.33118 16.7011 5.66504 16.9131C6.91796 17.7086 8.40377 18.1689 10 18.1689C14.4735 18.1689 18.0996 14.5429 18.0996 10.0693C18.0996 5.59583 14.4735 1.96973 10 1.96973ZM7.14062 5.3457C7.3262 5.26617 7.55033 5.2807 7.72656 5.40918C8.21717 5.76706 8.61041 6.24909 8.95215 6.72852V6.72949L9.27832 7.20215V7.20312C9.33013 7.27968 9.38165 7.35459 9.43164 7.42773C9.58859 7.65727 9.56914 7.96211 9.3916 8.16992L9.32812 8.23438L8.41016 8.91699H8.40918C8.28013 9.01309 8.23426 9.19076 8.31445 9.33691C8.52621 9.72222 8.90408 10.2967 9.33887 10.7314C9.66523 11.0578 10.0847 11.3654 10.4473 11.5977L10.7852 11.8027C10.9127 11.8757 11.0661 11.8516 11.168 11.7588L11.1689 11.7598L11.1768 11.75L11.2158 11.7051L11.2227 11.6943L11.8203 10.7852C12.018 10.5221 12.3874 10.4637 12.6562 10.6494L13.1992 11.0283C13.7361 11.4116 14.2454 11.8185 14.6465 12.332C14.7845 12.5088 14.8055 12.7412 14.7227 12.9346C14.3391 13.8291 13.3693 14.5825 12.377 14.5459L12.2246 14.5371H12.2256L12.0342 14.5186H12.0352C12.0016 14.5145 11.9667 14.51 11.9307 14.5049H11.9316L11.6953 14.4658H11.6963C10.7901 14.2946 9.32697 13.7801 7.80859 12.2617C6.29123 10.7443 5.77505 9.28229 5.60352 8.37598H5.60449L5.56445 8.1377L5.54102 7.93457L5.52734 7.76367C5.52593 7.7386 5.52523 7.71468 5.52441 7.69238C5.48796 6.69878 6.2453 5.72964 7.14062 5.3457Z" fill="white" stroke="#0E3346" stroke-width="0.2"/>
</svg>
