<svg width="20" height="20" viewBox="0 0 20 20" fill="none" xmlns="http://www.w3.org/2000/svg">
<g clip-path="url(#clip0_1284_15008)">
<path d="M10 20C15.5228 20 20 15.5228 20 10C20 4.47715 15.5228 0 10 0C4.47715 0 0 4.47715 0 10C0 15.5228 4.47715 20 10 20Z" fill="#F0F0F0"/>
<path d="M19.9998 9.99992C19.9998 6.03531 17.6926 2.60969 14.3477 0.992188V19.0076C17.6926 17.3902 19.9998 13.9645 19.9998 9.99992Z" fill="#D80027"/>
<path d="M0 9.99992C0 13.9645 2.30723 17.3902 5.65219 19.0077V0.992188C2.30723 2.60969 0 6.03531 0 9.99992Z" fill="#D80027"/>
<path d="M11.7389 11.3048L13.478 10.4353L12.6084 10.0005V9.13094L10.8693 10.0005L11.7389 8.26137H10.8693L9.99973 6.95703L9.13016 8.26137H8.26059L9.13016 10.0005L7.39102 9.13094V10.0005L6.52148 10.4353L8.26059 11.3048L7.82582 12.1744H9.56496V13.4788H10.4345V12.1744H12.1736L11.7389 11.3048Z" fill="#D80027"/>
</g>
<defs>
<clipPath id="clip0_1284_15008">
<rect width="20" height="20" fill="white"/>
</clipPath>
</defs>
</svg>
