<svg xmlns="http://www.w3.org/2000/svg" viewBox="0 0 201 82" fill="none">
  <g clip-path="url(#clip0_1473_2231)">
    <mask id="mask0_1473_2231" style="mask-type:luminance" maskUnits="userSpaceOnUse" x="0" y="0" width="37" height="38">
      <path d="M18.941 0.431078V6.8402C18.941 7.2269 18.4729 7.41708 18.2008 7.14449L12.3047 1.23618C12.1845 1.11573 12.0074 1.0777 11.8492 1.13475C10.508 1.63556 9.24276 2.28852 8.07239 3.06826C7.94586 3.15068 7.8826 3.29014 7.8826 3.42327C7.8826 3.53104 7.92689 3.64515 8.00913 3.7339L14.8099 10.5487C14.8985 10.6375 14.9365 10.7453 14.9365 10.853C14.9365 11.0749 14.7656 11.2905 14.5063 11.2905H1.53097C1.35383 11.2905 1.19568 11.3982 1.12609 11.5567C0.607327 12.8373 0.227748 14.1876 0 15.5949C0 15.6203 0 15.6393 0 15.6646C0 15.8992 0.18979 16.0957 0.436516 16.0957H14.5063C14.7656 16.0957 14.9365 16.3112 14.9365 16.5331C14.9365 16.6409 14.8985 16.7487 14.8099 16.8374L3.0999 28.5653C3.01766 28.6477 2.97337 28.7618 2.97337 28.8759C2.97337 28.9583 2.99868 29.0471 3.04929 29.1168C3.8211 30.2325 4.70679 31.2595 5.69369 32.1787C5.8645 32.3372 6.13021 32.3309 6.28837 32.1661L18.2008 20.229C18.4729 19.9564 18.941 20.1529 18.941 20.5333V36.686C18.941 36.9333 19.1498 37.1361 19.3965 37.1171C20.7883 37.041 22.1358 36.8065 23.4327 36.4388C23.6162 36.3881 23.7427 36.2169 23.7427 36.0204V20.5333C23.7427 20.1466 24.2045 19.9564 24.4766 20.229L33.1246 28.8949C33.3144 29.0851 33.6371 29.0598 33.7889 28.8315C34.567 27.6588 35.2187 26.3909 35.7184 25.0469C35.7374 24.9962 35.7437 24.9455 35.7437 24.8948C35.7437 24.7807 35.6995 24.6666 35.6172 24.5841L27.8738 16.8247C27.7852 16.736 27.7473 16.6282 27.7473 16.5204C27.7473 16.2986 27.9181 16.083 28.1775 16.083H36.2119C36.4523 16.083 36.6484 15.8865 36.6484 15.652C36.6484 15.6266 36.6484 15.6076 36.6484 15.5822C36.427 14.1749 36.0474 12.8246 35.5223 11.5377C35.4527 11.3729 35.2946 11.2714 35.1174 11.2714H28.1775C27.9181 11.2714 27.7473 11.0559 27.7473 10.834C27.7473 10.7262 27.7852 10.6185 27.8738 10.5297L31.9037 6.48519C31.9859 6.40278 32.0302 6.28867 32.0302 6.17456C32.0302 6.06679 31.9922 5.96536 31.9163 5.88295C30.999 4.89401 29.9741 4.00015 28.8607 3.23309C28.6899 3.11264 28.4558 3.138 28.3103 3.2838L24.4766 7.12547C24.2045 7.39807 23.7427 7.20788 23.7427 6.82118V1.09671C23.7427 0.906533 23.6162 0.735369 23.4327 0.678315C22.1358 0.31063 20.782 0.082412 19.3902 0C19.3839 0 19.3712 0 19.3649 0C19.1308 0 18.9347 0.196521 18.9347 0.431078" fill="white"/>
    </mask>
    <g mask="url(#mask0_1473_2231)">
      <path d="M19.4075 -18.3291L-18.4937 17.4609L17.2356 55.4542L55.1368 19.6642L19.4075 -18.3291Z" fill="url(#paint0_linear_1473_2231)"/>
    </g>
    <path d="M195.066 76.0854C191.903 76.0854 190.372 73.6637 190.372 70.2531C190.372 66.8425 191.978 64.3385 195.04 64.3385C197.805 64.3385 199.304 66.7601 199.304 70.2278C199.304 73.4545 197.906 76.0854 195.066 76.0854ZM188.847 81.5943H190.511V75.1154H190.568C191.612 76.6496 193.035 77.48 195.154 77.48C198.805 77.48 201 74.4688 201 70.1961C201 65.5747 198.583 62.9375 195.262 62.9375C193.06 62.9375 191.536 63.9835 190.568 65.6254H190.511V63.2354H188.847V81.5943ZM179.484 77.4547C181.685 77.4547 182.862 76.434 183.83 75.0901H183.881V77.1314H185.519V63.2354H183.881V71.9204C183.881 74.285 182.217 76.06 179.857 76.06C177.845 76.06 176.586 75.0394 176.586 72.941V63.2354H174.923V73.0488C174.923 75.8445 176.802 77.4547 179.484 77.4547ZM166.015 77.48C170.013 77.48 172.398 74.3357 172.398 70.1961C172.398 66.0564 170.013 62.9121 166.015 62.9121C162.017 62.9121 159.575 66.0564 159.575 70.1961C159.575 74.3357 162.017 77.48 166.015 77.48ZM166.015 76.0854C162.903 76.0854 161.296 73.4545 161.296 70.1961C161.296 66.9376 162.909 64.3068 166.015 64.3068C169.121 64.3068 170.709 66.944 170.709 70.1961C170.709 73.4482 169.102 76.0854 166.015 76.0854ZM152.173 77.1314H153.837V69.2261C153.837 67.5842 154.565 66.2973 155.634 65.4922C156.494 64.871 157.595 64.6618 158.588 64.8203V63.1784C158.481 63.153 158.348 63.1277 158.133 63.1277C156.203 63.1277 154.754 64.2053 153.894 65.8156H153.837V63.2354H152.173V77.1314ZM142.817 75.4641C139.894 75.4641 138.496 73.1249 138.496 69.9552C138.496 66.5699 140.103 64.3385 142.842 64.3385C145.872 64.3385 147.321 66.6207 147.321 69.9045C147.321 73.1883 145.897 75.4704 142.817 75.4704M142.924 82C144.986 82 146.517 81.4358 147.568 80.3328C148.396 79.4199 148.852 78.1583 148.852 76.5989V63.2418H147.213V65.3908H147.131C146.22 63.8884 144.879 62.9438 142.734 62.9438C139.514 62.9438 136.781 65.4162 136.781 69.9298C136.781 74.0187 139.09 76.8651 142.734 76.8651C144.828 76.8651 146.113 76.0029 147.131 74.4435H147.213V76.6496C147.213 79.0966 145.815 80.6307 142.867 80.6307C140.855 80.6307 139.274 79.9841 138.976 78.3739H137.37C137.61 80.4405 139.514 82 142.924 82Z" fill="currentColor"/>
    <path d="M91.4974 55.355C97.0203 55.355 100.803 51.2471 100.803 45.9283C100.803 40.6096 97.0203 36.5016 91.4974 36.5016C85.9746 36.5016 82.1914 40.6096 82.1914 45.9283C82.1914 51.2471 85.9746 55.355 91.4974 55.355ZM91.4974 51.7352C88.581 51.7352 86.9868 49.4023 86.9868 45.9283C86.9868 42.4543 88.581 40.0834 91.4974 40.0834C94.4139 40.0834 96.0081 42.448 96.0081 45.9283C96.0081 49.4086 94.3759 51.7352 91.4974 51.7352ZM119.561 40.1151H121.307C121.503 40.1151 121.668 40.2736 121.668 40.4764V50.5878C121.668 53.9603 124.205 54.8669 126.495 54.8669C127.754 54.8669 128.652 54.8352 129.107 54.8161C129.297 54.8098 129.449 54.6513 129.449 54.4548V51.6908C129.449 51.488 129.285 51.3231 129.082 51.3295C128.797 51.3358 128.393 51.3485 128.064 51.3485C127.02 51.3485 126.292 50.8984 126.292 49.5735V40.4701C126.292 40.2736 126.45 40.1088 126.653 40.1088H128.994C129.19 40.1088 129.354 39.9503 129.354 39.7474V37.3321C129.354 37.1356 129.196 36.9708 128.994 36.9708H126.653C126.457 36.9708 126.292 36.8123 126.292 36.6094V31.7598C126.292 31.5633 126.134 31.3984 125.932 31.3984H122.028C121.832 31.3984 121.668 31.5569 121.668 31.7598V36.6094C121.668 36.8059 121.51 36.9708 121.307 36.9708H119.561C119.365 36.9708 119.2 37.1292 119.2 37.3321V39.7474C119.2 39.9439 119.359 40.1088 119.561 40.1088" fill="currentColor"/>
    <path d="M102.619 60.3197C102.619 60.5162 102.777 60.681 102.98 60.681H105.396C109.009 60.681 110.325 59.2546 111.678 55.2862L117.733 37.4598C117.809 37.2253 117.638 36.9844 117.391 36.9844H113.399C113.241 36.9844 113.102 37.0858 113.058 37.238L110.635 45.0227C110.078 46.6583 109.591 48.9214 109.591 48.9214H109.521C109.521 48.9214 108.933 46.6583 108.376 45.0227L105.82 37.2316C105.77 37.0858 105.637 36.9844 105.479 36.9844H101.291C101.038 36.9844 100.867 37.238 100.955 37.4725L105.561 49.6822C106.567 52.3954 106.915 53.5429 106.915 54.5191C106.915 55.9772 106.149 56.9534 104.277 56.9534H102.967C102.771 56.9534 102.606 57.1119 102.606 57.3148V60.3197H102.619Z" fill="currentColor"/>
    <path d="M45.7013 55.3558C50.0664 55.3558 52.8247 52.9214 53.6471 49.961C53.7104 49.7327 53.5333 49.5109 53.2992 49.5109H49.3326C49.1871 49.5109 49.0669 49.5996 49.0099 49.7327C48.4596 50.9626 47.4031 51.7043 45.6633 51.7043C43.1265 51.7043 41.6208 50.1702 41.178 47.6661C41.14 47.4506 41.3108 47.2477 41.5322 47.2477H53.6661C53.8686 47.2477 54.0331 47.0829 54.0267 46.88C53.9129 40.7118 50.8636 36.4961 45.2458 36.4961C40.0392 36.4961 36.4648 40.604 36.4648 45.8911C36.4648 51.1781 39.7988 55.3558 45.7013 55.3558ZM45.3154 40.1476C47.3398 40.1476 48.7822 41.5296 49.0606 43.5772C49.0922 43.7864 48.9214 43.9702 48.7063 43.9702H41.6208C41.3931 43.9702 41.2222 43.761 41.2729 43.5392C41.76 41.4598 42.9746 40.1476 45.3154 40.1476ZM60.4796 36.9842H56.5762C56.3801 36.9842 56.2156 37.1427 56.2156 37.3456V54.4746C56.2156 54.6711 56.3738 54.8359 56.5762 54.8359H60.5808C60.7769 54.8359 60.9414 54.6775 60.9414 54.4746V44.7119C60.9414 42.2776 62.4724 40.604 64.5537 40.604C66.6351 40.604 67.641 41.9606 67.641 43.8751V54.4746C67.641 54.6711 67.7991 54.8359 68.0016 54.8359H72.0061C72.2023 54.8359 72.3667 54.6775 72.3667 54.4746V43.1778C72.3667 39.2791 69.8995 36.4961 66.2239 36.4961C63.7946 36.4961 62.1624 37.5041 60.9477 39.4186H60.8402V37.3392C60.8402 37.1427 60.682 36.9779 60.4796 36.9779" fill="currentColor"/>
    <path d="M75.0364 60.7118C76.5674 60.7118 77.9528 60.3632 78.8575 59.4249C79.623 58.6579 80.0405 57.6182 80.0405 55.5262V37.3449C80.0405 37.1483 79.8824 36.9835 79.6799 36.9835H75.6753C75.4792 36.9835 75.3147 37.142 75.3147 37.3449V55.2853C75.3147 56.7941 74.4291 57.0604 72.7905 57.1174C72.5501 57.1237 72.3604 57.3203 72.3604 57.5612V60.1983C72.3604 60.3759 72.4869 60.5217 72.6577 60.5534C73.3599 60.6611 74.2772 60.7118 75.0301 60.7118M75.6753 34.2005H79.6799C79.876 34.2005 80.0405 34.042 80.0405 33.8392V30.3145C80.0405 30.1179 79.8824 29.9531 79.6799 29.9531H75.6753C75.4792 29.9531 75.3147 30.1116 75.3147 30.3145V33.8392C75.3147 34.0357 75.4729 34.2005 75.6753 34.2005Z" fill="currentColor"/>
    <path d="M136.307 36.9841H132.473C132.277 36.9841 132.113 37.1426 132.113 37.3455V54.4745C132.113 54.671 132.271 54.8358 132.473 54.8358H136.478C136.674 54.8358 136.839 54.6773 136.839 54.4745V46.1382C136.839 42.3789 139.059 40.7434 142.153 41.0603H142.26V37.1933C142.26 37.0285 142.146 36.8763 141.982 36.8446C141.767 36.8003 141.507 36.7812 141.147 36.7812C139.065 36.7812 137.851 37.8272 136.775 39.8432H136.668V37.3518C136.668 37.1553 136.51 36.9904 136.307 36.9904" fill="currentColor"/>
    <path d="M154.969 54.8287H159.518V54.6575C159.101 54.3469 158.892 53.5418 158.892 52.1852V43.1071C158.892 38.9295 156.741 36.5332 151.389 36.5332C146.397 36.5332 144.05 39.0563 143.747 42.0231C143.728 42.2323 143.898 42.4098 144.107 42.4098H147.606C147.789 42.4098 147.928 42.2704 147.96 42.0928C148.2 40.6031 149.282 39.9058 151.357 39.9058C153.432 39.9058 154.343 40.7426 154.343 42.0295C154.343 43.3861 152.989 43.6333 150.035 44.0454C146.075 44.6032 142.88 45.8521 142.88 49.7889C142.88 53.3389 145.448 55.2534 149.092 55.2534C152.148 55.2534 153.432 54.2074 154.337 52.8508H154.406C154.508 53.6496 154.685 54.4864 154.963 54.835M150.244 51.9443C148.58 51.9443 147.466 51.3547 147.466 49.6811C147.466 48.0075 148.681 47.456 151.148 46.8981C152.116 46.6699 153.154 46.4417 153.951 46.0993C154.185 45.9979 154.444 46.1691 154.444 46.429V48.5337C154.444 50.2707 152.951 51.9443 150.244 51.9443Z" fill="currentColor"/>
    <path d="M165.952 54.8298H169.957C170.109 54.8298 170.248 54.7347 170.298 54.5889L176.264 37.4598C176.346 37.2253 176.169 36.9844 175.922 36.9844H171.968C171.81 36.9844 171.671 37.0858 171.627 37.238L168.793 46.2399C168.274 47.9452 168.027 49.0926 168.027 49.0926H167.958C167.958 49.0926 167.679 47.9452 167.16 46.2399L164.39 37.238C164.345 37.0858 164.206 36.9844 164.048 36.9844H160.024C159.778 36.9844 159.607 37.2253 159.683 37.4598L165.617 54.5889C165.667 54.7347 165.8 54.8298 165.958 54.8298" fill="currentColor"/>
    <path d="M185.659 55.3553C190.024 55.3553 192.782 52.9273 193.605 49.9605C193.668 49.7386 193.491 49.5167 193.257 49.5167H189.296C189.151 49.5167 189.031 49.6055 188.967 49.7386C188.417 50.9684 187.361 51.7101 185.621 51.7101C183.084 51.7101 181.578 50.176 181.135 47.672C181.097 47.4564 181.268 47.2536 181.49 47.2536H193.617C193.82 47.2536 193.984 47.0824 193.978 46.8859C193.864 40.7176 190.815 36.502 185.197 36.502C179.99 36.502 176.41 40.6099 176.41 45.8969C176.41 51.184 179.744 55.3616 185.646 55.3616M185.279 40.1471C187.304 40.1471 188.746 41.5354 189.024 43.5767C189.056 43.7859 188.879 43.9698 188.664 43.9698H181.585C181.357 43.9698 181.18 43.7606 181.23 43.5387C181.717 41.4594 182.932 40.1471 185.273 40.1471" fill="currentColor"/>
    <path d="M196.293 54.9231H200.298C200.494 54.9231 200.658 54.7646 200.658 54.5618V30.4024C200.658 30.2058 200.5 30.041 200.298 30.041H196.293C196.097 30.041 195.933 30.1995 195.933 30.4024V54.5618C195.933 54.7583 196.091 54.9231 196.293 54.9231Z" fill="currentColor"/>
  </g>
  <defs>
    <linearGradient id="paint0_linear_1473_2231" x1="4.85968" y1="30.6905" x2="30.6651" y2="6.42275" gradientUnits="userSpaceOnUse">
      <stop stop-color="#F39200"/>
      <stop offset="0.27" stop-color="#F39200"/>
      <stop offset="0.65" stop-color="#1D71B8"/>
      <stop offset="0.74" stop-color="#1D6CB4"/>
      <stop offset="0.82" stop-color="#2060AA"/>
      <stop offset="0.91" stop-color="#254B9A"/>
      <stop offset="1" stop-color="#2D2E83"/>
    </linearGradient>
    <clipPath id="clip0_1473_2231">
      <rect width="201" height="82" fill="white"/>
    </clipPath>
  </defs>
</svg>