<svg xmlns="http://www.w3.org/2000/svg" width="18" height="18" viewBox="0 0 18 18" fill="none">
<path d="M6.07772 9.40496C5.97368 9.30106 5.91517 9.16009 5.91504 9.01306V8.73207C5.91674 8.58536 5.97502 8.44497 6.07772 8.34017L9.87842 4.54686C9.94784 4.47687 10.0423 4.4375 10.1409 4.4375C10.2395 4.4375 10.334 4.47687 10.4034 4.54686L10.9284 5.07186C10.998 5.14001 11.0372 5.23329 11.0372 5.33066C11.0372 5.42804 10.998 5.52132 10.9284 5.58947L7.63793 8.87257L10.9284 12.1557C10.9984 12.2251 11.0378 12.3196 11.0378 12.4182C11.0378 12.5167 10.9984 12.6112 10.9284 12.6807L10.4034 13.1983C10.334 13.2683 10.2395 13.3076 10.1409 13.3076C10.0423 13.3076 9.94784 13.2683 9.87842 13.1983L6.07772 9.40496Z" fill="#BCBCBC"/>
</svg>