<svg  viewBox="0 0 45 44" fill="none" xmlns="http://www.w3.org/2000/svg">
<path d="M39.6875 0.125H5.3125C4.0693 0.125 2.87701 0.61886 1.99794 1.49794C1.11886 2.37701 0.625 3.5693 0.625 4.8125L0.625 39.1875C0.625 40.4307 1.11886 41.623 1.99794 42.5021C2.87701 43.3811 4.0693 43.875 5.3125 43.875H18.7158V29.001H12.5635V22H18.7158V16.6641C18.7158 10.5947 22.3291 7.24219 27.8633 7.24219C30.5137 7.24219 33.2852 7.71484 33.2852 7.71484V13.6719H30.2314C27.2227 13.6719 26.2842 15.5391 26.2842 17.4541V22H33.001L31.9268 29.001H26.2842V43.875H39.6875C40.9307 43.875 42.123 43.3811 43.0021 42.5021C43.8811 41.623 44.375 40.4307 44.375 39.1875V4.8125C44.375 3.5693 43.8811 2.37701 43.0021 1.49794C42.123 0.61886 40.9307 0.125 39.6875 0.125Z" fill="currentColor"/>
</svg>
