<svg viewBox="0 0 45 44" fill="none" xmlns="http://www.w3.org/2000/svg">
<path d="M22.5 16.791C21.4698 16.7914 20.4629 17.0972 19.6066 17.6698C18.7502 18.2424 18.0829 19.0561 17.6889 20.008C17.295 20.9598 17.1921 22.0071 17.3933 23.0174C17.5945 24.0277 18.0908 24.9557 18.8193 25.684C19.5479 26.4123 20.4761 26.9082 21.4864 27.109C22.4968 27.3099 23.5441 27.2066 24.4958 26.8123C25.4475 26.418 26.2609 25.7503 26.8332 24.8938C27.4055 24.0372 27.7109 23.0302 27.7109 22C27.7099 20.6185 27.1605 19.2939 26.1834 18.3171C25.2064 17.3404 23.8815 16.7915 22.5 16.791ZM34.6787 12.7871C34.4135 12.1151 34.0131 11.5047 33.5022 10.9939C32.9914 10.483 32.381 10.0826 31.709 9.81738C29.6582 9.00781 24.7754 9.18945 22.5 9.18945C20.2246 9.18945 15.3467 9.00098 13.29 9.81738C12.618 10.0826 12.0076 10.483 11.4968 10.9939C10.9859 11.5047 10.5855 12.1151 10.3203 12.7871C9.51172 14.8379 9.69238 19.7256 9.69238 21.999C9.69238 24.2725 9.51172 29.1543 10.3242 31.2119C10.5894 31.8839 10.9898 32.4943 11.5007 33.0052C12.0115 33.516 12.6219 33.9165 13.2939 34.1816C15.3447 34.9912 20.2275 34.8096 22.5039 34.8096C24.7803 34.8096 29.6562 34.998 31.7129 34.1816C32.3849 33.9165 32.9953 33.516 33.5061 33.0052C34.017 32.4943 34.4174 31.8839 34.6826 31.2119C35.498 29.1611 35.3105 24.2734 35.3105 22C35.3105 19.7266 35.498 14.8457 34.6826 12.7881L34.6787 12.7871ZM22.5 30.0078C20.9162 30.0078 19.368 29.5382 18.0511 28.6583C16.7342 27.7783 15.7078 26.5277 15.1017 25.0645C14.4957 23.6012 14.3371 21.9911 14.6461 20.4378C14.955 18.8844 15.7177 17.4575 16.8376 16.3376C17.9575 15.2177 19.3844 14.455 20.9378 14.1461C22.4911 13.8371 24.1012 13.9957 25.5645 14.6017C27.0277 15.2078 28.2783 16.2342 29.1583 17.5511C30.0382 18.868 30.5078 20.4162 30.5078 22C30.5091 23.052 30.3028 24.0938 29.9009 25.066C29.4989 26.0381 28.9091 26.9214 28.1652 27.6652C27.4214 28.4091 26.5381 28.9989 25.566 29.4009C24.5938 29.8028 23.552 30.0091 22.5 30.0078ZM30.8379 15.5254C30.4682 15.5256 30.1067 15.4161 29.7992 15.2109C29.4917 15.0056 29.252 14.7137 29.1103 14.3722C28.9687 14.0307 28.9316 13.6548 29.0036 13.2922C29.0756 12.9296 29.2535 12.5964 29.5149 12.3349C29.7763 12.0734 30.1093 11.8953 30.4719 11.8231C30.8345 11.7509 31.2104 11.7879 31.552 11.9293C31.8936 12.0707 32.1856 12.3103 32.391 12.6177C32.5964 12.9251 32.7061 13.2865 32.7061 13.6562C32.7071 13.9018 32.6596 14.1451 32.5664 14.3722C32.4732 14.5994 32.3361 14.8059 32.1629 14.9799C31.9897 15.1539 31.7838 15.292 31.5571 15.3863C31.3304 15.4806 31.0873 15.5292 30.8418 15.5293L30.8379 15.5254ZM39.6875 0.125H5.3125C4.0693 0.125 2.87701 0.61886 1.99794 1.49794C1.11886 2.37701 0.625 3.5693 0.625 4.8125L0.625 39.1875C0.625 40.4307 1.11886 41.623 1.99794 42.5021C2.87701 43.3811 4.0693 43.875 5.3125 43.875H39.6875C40.9307 43.875 42.123 43.3811 43.0021 42.5021C43.8811 41.623 44.375 40.4307 44.375 39.1875V4.8125C44.375 3.5693 43.8811 2.37701 43.0021 1.49794C42.123 0.61886 40.9307 0.125 39.6875 0.125ZM38.0156 28.4453C37.8896 30.9482 37.3184 33.166 35.4912 34.9883C33.6641 36.8105 31.4482 37.3936 28.9482 37.5127C26.3691 37.6582 18.6367 37.6582 16.0576 37.5127C13.5547 37.3867 11.3447 36.8145 9.51465 34.9883C7.68457 33.1621 7.10938 30.9434 6.99023 28.4453C6.84473 25.8652 6.84473 18.1318 6.99023 15.5547C7.11621 13.0518 7.68066 10.834 9.51465 9.01172C11.3486 7.18945 13.5645 6.61328 16.0576 6.49414C18.6367 6.34863 26.3691 6.34863 28.9482 6.49414C31.4512 6.62012 33.668 7.19238 35.4912 9.01855C37.3145 10.8447 37.8965 13.0635 38.0156 15.5664C38.1611 18.1367 38.1611 25.8633 38.0156 28.4453Z" fill="currentColor"/>
</svg>
