<svg viewBox="0 0 45 44" fill="none" xmlns="http://www.w3.org/2000/svg">
<path d="M41.25 0.125H3.74023C2.02148 0.125 0.625 1.54102 0.625 3.2793V40.7207C0.625 42.459 2.02148 43.875 3.74023 43.875H41.25C42.9688 43.875 44.375 42.459 44.375 40.7207V3.2793C44.375 1.54102 42.9688 0.125 41.25 0.125ZM13.8477 37.625H7.36328V16.7461H13.8574V37.625H13.8477ZM10.6055 13.8945C8.52539 13.8945 6.8457 12.2051 6.8457 10.1348C6.8457 8.06445 8.52539 6.375 10.6055 6.375C12.6758 6.375 14.3652 8.06445 14.3652 10.1348C14.3652 12.2148 12.6855 13.8945 10.6055 13.8945ZM38.1543 37.625H31.6699V27.4688C31.6699 25.0469 31.6211 21.9316 28.3008 21.9316C24.9219 21.9316 24.4043 24.5684 24.4043 27.293V37.625H17.9199V16.7461H24.1406V19.5977H24.2285C25.0977 17.957 27.2168 16.2285 30.3711 16.2285C36.9336 16.2285 38.1543 20.5547 38.1543 26.1797V37.625Z" fill="currentColor"/>
</svg>
