<svg viewBox="0 0 45 44" fill="none" xmlns="http://www.w3.org/2000/svg">
<path d="M39.7861 0C41.0363 0.000111052 42.2351 0.496858 43.1191 1.38086C44.0031 2.26486 44.4999 3.46371 44.5 4.71387V39.2861C44.4999 40.5363 44.0031 41.7351 43.1191 42.6191C42.2351 43.5031 41.0363 43.9999 39.7861 44H5.21387C3.96371 43.9999 2.76486 43.5031 1.88086 42.6191C0.996858 41.7351 0.500111 40.5363 0.5 39.2861V4.71387C0.500111 3.46371 0.996858 2.26486 1.88086 1.38086C2.76486 0.496858 3.96371 0.000110799 5.21387 0H39.7861ZM23.9775 28.2637C23.9773 31.0693 21.7366 33.3739 18.9482 33.374C16.1597 33.374 13.9182 31.0694 13.918 28.2637C13.918 25.508 16.1097 23.2525 18.7988 23.1523V17.2402C12.8729 17.3404 8.0918 22.2012 8.0918 28.2637C8.092 34.3762 12.9727 39.2861 18.998 39.2861C25.0232 39.286 29.9031 34.326 29.9033 28.2637V16.1885C32.0944 17.7918 34.7836 18.7438 37.6221 18.7939V12.8818C33.24 12.7315 29.8038 9.12387 29.8037 4.71484H23.9775V28.2637Z" fill="currentColor"/>
</svg>
