<svg viewBox="0 0 45 44" fill="none" xmlns="http://www.w3.org/2000/svg">
<path d="M18.8672 16.7363L28.1641 22.0195L18.8672 27.3027V16.7363ZM44.375 4.8125V39.1875C44.375 41.7754 42.2754 43.875 39.6875 43.875H5.3125C2.72461 43.875 0.625 41.7754 0.625 39.1875V4.8125C0.625 2.22461 2.72461 0.125 5.3125 0.125H39.6875C42.2754 0.125 44.375 2.22461 44.375 4.8125ZM40.2734 22.0293C40.2734 22.0293 40.2734 16.209 39.5312 13.416C39.1211 11.873 37.9199 10.6621 36.3867 10.252C33.623 9.5 22.5 9.5 22.5 9.5C22.5 9.5 11.377 9.5 8.61328 10.252C7.08008 10.6621 5.87891 11.873 5.46875 13.416C4.72656 16.1992 4.72656 22.0293 4.72656 22.0293C4.72656 22.0293 4.72656 27.8496 5.46875 30.6426C5.87891 32.1855 7.08008 33.3477 8.61328 33.7578C11.377 34.5 22.5 34.5 22.5 34.5C22.5 34.5 33.623 34.5 36.3867 33.748C37.9199 33.3379 39.1211 32.1758 39.5312 30.6328C40.2734 27.8496 40.2734 22.0293 40.2734 22.0293Z" fill="currentColor"/>
</svg>
